<?xml version="1.0" encoding="UTF-8"?>
<svg width="384px" height="384px" viewBox="0 0 384 384" version="1.1" xmlns="http://www.w3.org/2000/svg" xmlns:xlink="http://www.w3.org/1999/xlink">
    <!-- Generator: Sketch 51.2 (57519) - http://www.bohemiancoding.com/sketch -->
    <title>Artboard 1 copy 3</title>
    <desc>Created with Sketch.</desc>
    <defs></defs>
    <g id="Logo-Assets" stroke="none" stroke-width="1" fill="none" fill-rule="evenodd">
        <g id="Artboard-1-copy-3">
            <path d="M343.14,120.1 C326.61,84.22 300.7,57.19 265.38,39.59 C237.08,25.5 207.03,19.78 175.38,23.1 C161.891312,24.4578974 148.599886,27.3396072 135.76,31.69 C124.51,35.55 114.15,41.27 103.57,46.54 C92.7778766,51.8888155 83.0067223,59.0877228 74.7,67.81 C66.12,76.81 58.93,86.87 52.15,97.21 C27.7,134.5 19.57,175.31 27.5,219 C34.5,257.85 53.61,290.15 83.77,315.58 C115,341.9 151.15,355 195.05,354.86 C204.4,355.3 216.56,353.7 228.52,350.81 C276.52,339.19 312.79,311.69 337.23,268.81 C348.09,249.74 354.23,229.1 356.79,207.28 C358.383859,193.711157 358.296532,179.997444 356.53,166.45 C354.453209,150.40824 349.937783,134.777918 343.14,120.1 Z" id="Shape"></path>
            <path d="M192.22,0.57 C85.98,0.57 -1.24,88.21 0.65,192.33 C-1.44,293.76 84.65,382.04 189.22,383.42 C294.16,384.79 381.54,298.76 383.35,195.69 C385.25,88.05 296.84,0.6 192.22,0.57 Z M356.79,207.27 C354.23,229.09 348.09,249.73 337.23,268.8 C312.79,311.69 276.57,339.19 228.52,350.8 C216.52,353.69 204.4,355.29 195.05,354.85 C151.15,354.98 114.96,341.85 83.77,315.61 C53.61,290.18 34.53,257.88 27.5,219.03 C19.57,175.3 27.7,134.49 52.16,97.2 C58.94,86.86 66.16,76.79 74.71,67.8 C83.0167223,59.0777228 92.7878766,51.8788155 103.58,46.53 C114.16,41.26 124.52,35.53 135.77,31.68 C148.609886,27.3296072 161.901312,24.4478974 175.39,23.09 C207.03,19.77 237.08,25.49 265.39,39.58 C300.71,57.18 326.62,84.21 343.15,120.09 C349.946808,134.764778 354.462214,150.391655 356.54,166.43 C358.304035,179.981149 358.388003,193.698271 356.79,207.27 Z" id="Shape" fill="#E11E25" fill-rule="nonzero"></path>
            <path d="M196.72,248.73 C189.41,251.63 182.02,254.05 174.11,254.48 C152.72,255.67 134.11,248.57 118,234.92 C97.6,217.61 82.47,196.56 74.46,170.79 C71.5208737,161.02258 69.8636606,150.914588 69.53,140.72 C68.8777166,128.810679 69.1418279,116.868837 70.32,105 C71.96,90.09 77.21,77 90.03,68 C96.03,63.84 103.14,64.34 108.68,69.09 C113.86,73.52 116.75,79.4 118.98,85.63 C123.25,97.63 127.78,109.44 132.85,121.07 C136.52,129.48 141.17,137.19 148.7,142.84 C150.31,144.04 152.26,144.52 154.02,145.78 C134.94,164.91 128.14,186.78 139.19,212.42 C150,237.58 170,248.57 196.72,248.73 Z" id="Shape" fill="#E11E25" fill-rule="nonzero"></path>
            <path d="M171.33,134.84 C182.66,127.63 194.07,122.77 206.76,121.33 C218.88,119.96 230.76,120.43 241.95,126.04 C253.6,131.9 263.34,140.31 272.43,149.55 C288.05,165.46 297.29,184.91 303.64,205.92 C308.31,221.35 311.73,237.09 310.86,253.31 C310.02,268.91 307.23,284.21 299.93,298.31 C297.12,303.74 293.85,308.91 287.12,310.2 C282.5,311.08 278.12,310.91 273.86,308.38 C266,303.69 261.21,297.25 259.36,288.01 C257.09,276.7 254.22,265.45 248.73,255.1 C244.942159,247.887478 239.88454,241.417248 233.8,236 C232.06,234.46 232.07,233.45 233.62,231.7 C241.4,222.89 247.24,213.01 249.62,201.33 C252.224891,188.747393 250.242071,175.648006 244.03,164.4 C233.22,144.14 216.43,132.82 193.03,132.34 C186.382284,132.229247 179.753544,133.081417 173.35,134.87 C172.677231,134.923849 172.000873,134.913804 171.33,134.84 Z" id="Shape" fill="#E11E25" fill-rule="nonzero"></path>
            <path d="M245.59,190.46 C247.18,219.71 220.49,244.64 191.87,244.2 C162.316054,243.910045 138.486149,219.915242 138.4,190.36 C138.34,160.98 162.72,136.68 192.11,136.64 C223.16,136.6 247.26,163.38 245.59,190.46 Z" id="Shape" fill="#E11E25" fill-rule="nonzero"></path>
            <path d="M255,332.77 C204.9,355.99 133.47,352.16 81.89,302.86 C32.23,255.41 21.96,185.53 44.19,131.86 C44.6055464,133.299913 44.6774737,134.817235 44.4,136.29 C42.96,145.61 43.47,154.89 44.4,164.21 C45.7162851,178.64635 48.9445224,192.843869 54,206.43 C63.0312242,230.535149 76.6108192,252.680073 94,271.66 C110.55,289.71 129.29,304.8 151.08,315.96 C169.08,325.2 188.08,331.74 208.26,334.23 C222.55,336 236.87,336.12 251.05,332.94 C251.473685,332.842826 251.905605,332.785906 252.34,332.77 C253,332.75 253.6,332.77 255,332.77 Z" id="Shape" fill="#E11E25" fill-rule="nonzero"></path>
            <path d="M161.58,33.22 C221.44,23.63 272.66,40.54 312.03,86.96 C350.79,132.65 358.46,185.29 340.42,241.87 L339.48,242 C339.48,240.38 339.4,238.75 339.48,237.13 C339.56,235.51 339.87,233.7 340.06,231.99 C340.848286,223.810019 340.871721,215.574334 340.13,207.39 C339.011339,192.916114 335.891648,178.667169 330.86,165.05 C321.251876,138.448216 306.104487,114.189897 286.42,93.88 C266.02,72.74 242.42,56.3 215.07,45.52 C200.95,39.96 186.39,36.13 171.17,35.08 C167.91,34.85 164.66,34.39 161.4,34.03 L161.58,33.22 Z" id="Shape" fill="#E11E25" fill-rule="nonzero"></path>
        </g>
    </g>
</svg>