<?xml version="1.0" encoding="UTF-8"?>
<svg width="372px" height="97px" viewBox="0 0 372 97" version="1.1" xmlns="http://www.w3.org/2000/svg" xmlns:xlink="http://www.w3.org/1999/xlink">
    <!-- Generator: Sketch 51.3 (57544) - http://www.bohemiancoding.com/sketch -->
    <title>Page 1</title>
    <desc>Created with Sketch.</desc>
    <defs>
        <polygon id="path-1" points="0.172929278 0.0345612534 95.9288483 0.0345612534 95.9288483 96.6201463 0.172929278 96.6201463 0.172929278 0.0345612534"></polygon>
    </defs>
    <g id="Page-1" stroke="none" stroke-width="1" fill="none" fill-rule="evenodd">
        <g id="A4" transform="translate(-118.000000, -744.000000)">
            <g id="Page-1" transform="translate(118.000000, 744.000000)">
                <path d="M31.2711406,35.533913 L31.2711406,33.8227526 C31.2711406,24.411244 27.9984412,19.644566 21.817037,19.644566 C18.4232562,19.644566 15.7567142,21.1112749 14.4235683,23.6778895 C12.8477592,26.3668559 12.484265,28.8116231 12.484265,35.4115611 L12.484265,62.5454246 C12.484265,68.7790638 12.8477592,71.9569332 13.8174109,74.6458996 C15.0294755,77.823769 18.1808433,79.9014806 21.817037,79.9014806 C26.4228823,79.9014806 29.4529186,77.2125142 30.7863147,71.8348336 C31.2711406,69.7568698 31.3922219,67.9236097 31.5135535,61.934422 L44.1187747,61.934422 L44.1187747,64.745488 C44.1187747,82.4683474 36.4828931,91.7572519 21.9381184,91.7572519 C13.8174109,91.7572519 7.39359381,88.5793825 3.87848151,82.7127989 C0.848445192,77.7014171 0.000125084061,72.9347392 0.000125084061,60.8342641 L0.000125084061,37.9781757 C0.000125084061,25.0224988 0.969526564,20.5000201 4.72705178,15.366791 C8.24191392,10.4777611 14.3022367,7.7887947 21.817037,7.7887947 C35.6343228,7.7887947 43.7552804,17.0779514 43.7552804,33.0893981 L43.7552804,35.533913 L31.2711406,35.533913 Z" id="Fill-1" fill="#000000"></path>
                <path d="M97.4479392,9.01085035 L97.4479392,64.2566355 C97.4479392,74.5233459 96.2358746,79.7791792 92.8420939,84.4240098 C89.3272317,89.1904355 83.3879903,91.7573023 76.1158531,91.7573023 C68.7221342,91.7573023 62.783143,89.1904355 59.2680307,84.4240098 C55.8742499,79.7791792 54.6624355,74.5233459 54.6624355,64.2566355 L54.6624355,9.01085035 L67.1465754,9.01085035 L67.1465754,66.334347 C67.1465754,75.9903072 69.6917859,79.901531 76.1158531,79.901531 C82.4183387,79.901531 84.9637993,75.9903072 84.9637993,66.334347 L84.9637993,9.01085035 L97.4479392,9.01085035 Z" id="Fill-3" fill="#000000"></path>
                <polygon id="Fill-5" fill="#000000" points="238.610907 24.6556702 247.39531 72.8123621 247.406568 72.8123621 250.800349 90.5349692 263.648233 90.5349692 247.285486 9.01077467 230.195251 9.01077467 214.681075 90.5349692 226.812228 90.5349692"></polygon>
                <path d="M314.19125,9.01085035 L314.19125,64.2566355 C314.19125,74.5235982 312.979185,79.7791792 309.585655,84.4240098 C306.070543,89.1906878 300.131551,91.7573023 292.859164,91.7573023 C285.465695,91.7573023 279.526704,89.1906878 276.011592,84.4240098 C272.617561,79.7791792 271.405746,74.5235982 271.405746,64.2566355 L271.405746,9.01085035 L283.889886,9.01085035 L283.889886,66.334347 C283.889886,75.9903072 286.435347,79.901531 292.859164,79.901531 C299.1619,79.901531 301.70711,75.9903072 301.70711,66.334347 L301.70711,9.01085035 L314.19125,9.01085035 Z" id="Fill-7" fill="#000000"></path>
                <polygon id="Fill-9" fill="#000000" points="340.733738 90.5350953 323.401089 9.0109008 336.370305 9.0109008 348.490951 70.9789759 359.156869 9.0109008 371.883672 9.0109008 356.248164 90.5350953"></polygon>
                <g id="Group-13" transform="translate(111.574983, 0.217711)">
                    <mask id="mask-2" fill="white">
                        <use xlink:href="#path-1"></use>
                    </mask>
                    <g id="Clip-12"></g>
                    <path d="M89.2764226,52.1797226 C88.6352417,57.6837915 87.1009606,62.8901794 84.3826338,67.7007527 C78.2690252,78.5219568 69.2081859,85.4596869 57.1861065,88.3898253 C54.1958469,89.1186389 51.1520514,89.5227785 48.8142303,89.4130402 C37.8320998,89.4450788 28.7785154,86.1438484 20.976272,79.5121241 C13.4304508,73.0981105 8.65799354,64.9497274 6.89706012,55.1484586 C4.91522824,44.1163552 6.94884492,33.8213903 13.0664562,24.4146748 C14.7628463,21.8066877 16.5623056,19.2665617 18.7092484,16.996619 C20.8076586,14.7781397 23.2095228,13.0003794 25.931352,11.6323088 C28.5788812,10.3010699 31.1698725,8.85857902 33.9837636,7.88682757 C37.2061792,6.77380385 40.5076479,6.0770288 43.8956748,5.7185504 C51.810744,4.88176443 59.3292968,6.32400301 66.4085544,9.87977576 C75.243742,14.3174911 81.7253479,21.1374103 85.8611274,30.1889269 C87.5615201,33.9106946 88.6902787,37.8158639 89.2103782,41.8787032 C89.6489229,45.3025378 89.6779424,48.7311655 89.2764226,52.1797226 M48.1052538,0.0343594359 C21.5291435,0.0265390063 -0.292771755,22.1439753 0.182297512,48.4100233 C-0.341804707,73.998469 21.1939182,96.2697911 47.3560003,96.6161605 C73.6076425,96.9632866 95.4683338,75.2608377 95.9213883,49.2574047 C96.3947064,22.102855 74.2798443,0.0424321374 48.1052538,0.0343594359" id="Fill-11" fill="#B31B1B" mask="url(#mask-2)"></path>
                </g>
                <path d="M160.807169,62.8558956 C158.978691,63.5867274 157.129698,64.1972255 155.150118,64.3077206 C149.798521,64.6061582 145.143393,62.8170458 141.114435,59.3715158 C136.010255,55.0069593 132.225211,49.6958785 130.221865,43.1950834 C129.461854,40.7293776 129.09861,38.1884948 128.988036,35.6080053 C128.858699,32.5994103 128.856947,29.5925813 129.184417,26.5973568 C129.595694,22.8364869 130.909327,19.5344997 134.116732,17.2736388 C135.606984,16.2226739 137.394935,16.3495667 138.781867,17.5481106 C140.076487,18.6671889 140.800724,20.1505478 141.357598,21.7216973 C142.426317,24.7368513 143.559078,27.7265259 144.828681,30.6612052 C145.746548,32.7823075 146.908829,34.7290899 148.794096,36.1521558 C149.196617,36.4561435 149.684194,36.5782431 150.123239,36.8956012 C145.351783,41.7208062 143.650139,47.2435432 146.414747,53.7062453 C149.125068,60.0423069 154.113921,62.8157844 160.807169,62.8558956" id="Fill-14" fill="#B31B1B"></path>
                <path d="M154.455351,34.1247221 C157.288755,32.3050847 160.142923,31.0815659 163.318807,30.7177897 C166.350345,30.3709159 169.3351,30.490745 172.122724,31.905486 C175.036932,33.384304 177.47382,35.5054063 179.745847,37.8371557 C183.655224,41.8487838 185.967028,46.7564818 187.555095,52.0554535 C188.722129,55.9492706 189.578955,59.9205352 189.360308,64.0128904 C189.150167,67.9483323 188.451948,71.8065791 186.626971,75.3575587 C185.924249,76.7251248 185.105449,78.0313888 183.420817,78.3555582 C182.266791,78.5775575 181.161548,78.5349236 180.103838,77.897937 C178.139267,76.7142771 176.939711,75.08788 176.4764,72.7591579 C175.908518,69.9049534 175.191786,67.0661374 173.818363,64.4566367 C172.854466,62.6256471 171.618385,61.0080795 170.083353,59.6334498 C169.648561,59.2441942 169.650062,58.9899041 170.037573,58.5479237 C171.985382,56.3259126 173.444112,53.8327092 174.045266,50.8871822 C174.714716,47.6068904 174.179356,44.4686277 172.645825,41.5702756 C169.942259,36.4594987 165.741686,33.6040328 159.884249,33.4821855 C158.211375,33.4473719 156.571523,33.6774439 154.958939,34.1211903 C154.859622,34.1486879 154.746296,34.1247221 154.455351,34.1247221" id="Fill-16" fill="#B31B1B"></path>
                <path d="M173.03181,48.1576 C173.431078,55.5365538 166.753591,61.8254405 159.594279,61.7144409 C152.198559,61.6001617 146.234801,55.6278762 146.21779,48.1306069 C146.200778,40.7188578 152.299627,34.5883979 159.65432,34.5785592 C167.421539,34.5679638 173.450591,41.3250673 173.03181,48.1576" id="Fill-18" fill="#B31B1B"></path>
                <path d="M175.373484,84.0565757 C162.841562,89.9143298 144.972303,88.9481283 132.06713,76.5126362 C119.64278,64.5405675 117.074304,46.9120579 122.635541,33.3597579 C122.763627,33.7913952 122.73811,34.1476031 122.687326,34.479593 C122.327584,36.8287491 122.45517,39.1715985 122.684574,41.5227728 C123.041814,45.1839952 123.811582,48.7483452 125.104951,52.1852979 C127.408999,58.3074329 130.719224,63.797879 135.123934,68.6414999 C139.264467,73.1942513 143.953868,77.0002778 149.404031,79.8173984 C153.913562,82.1481386 158.664755,83.7969879 163.709895,84.4266587 C167.282546,84.8724231 170.866204,84.9014344 174.413088,84.0997142 C174.518159,84.0757484 174.627232,84.0631348 174.734804,84.0583416 C174.885155,84.051278 175.035757,84.0565757 175.373484,84.0565757" id="Fill-20" fill="#B31B1B"></path>
                <path d="M152.015011,8.49031246 C166.990575,6.06925882 179.803436,10.335177 189.654806,22.0471533 C199.349321,33.5732052 201.269862,46.8527992 196.755578,61.1250832 C196.677025,61.1361832 196.598222,61.1470309 196.51967,61.1578786 C196.51967,60.7489458 196.499906,60.3384994 196.524923,59.9308279 C196.551941,59.4969202 196.622739,59.0655352 196.671772,58.6331412 C196.90718,56.5650159 196.836883,54.4986566 196.687532,52.4280087 C196.421604,48.7534159 195.614812,45.2011749 194.368724,41.74732 C191.924081,34.9707916 188.220843,28.9858925 183.251753,23.792875 C178.149074,18.4603511 172.253111,14.3122439 165.402758,11.5914912 C161.870634,10.1883548 158.227185,9.22366694 154.421128,8.95752006 C153.603828,8.90025434 152.790532,8.78345244 151.975484,8.69440045 L152.015011,8.49031246 Z" id="Fill-22" fill="#B31B1B"></path>
            </g>
        </g>
    </g>
</svg>