<svg id="Layer_1" data-name="Layer 1" xmlns="http://www.w3.org/2000/svg" viewBox="0 0 1921 386.67"><defs><style>.cls-1{fill:none;}.cls-2{fill:#e11e25;}</style></defs><title>Red Prop Text Aligned</title><path class="cls-1" d="M999.1,121.72c-16.53-35.87-42.44-62.91-77.75-80.5-28.3-14.1-58.35-19.81-90-16.49a179.58,179.58,0,0,0-39.63,8.59c-11.24,3.85-21.6,9.57-32.18,14.85a103,103,0,0,0-28.87,21.26c-8.58,9-15.78,19.07-22.56,29.41-24.45,37.28-32.58,78.09-24.66,121.82,7,38.86,26.12,71.16,56.28,96.58,31.19,26.29,67.38,39.37,111.28,39.25,9.34.43,21.51-1.17,33.46-4.06,48.06-11.61,84.28-39.11,108.72-82,10.86-19.07,17-39.71,19.56-61.52a166.08,166.08,0,0,0-.27-40.84A159,159,0,0,0,999.1,121.72Z"/><path class="cls-2" d="M848.18,2.19C742,2.16,654.72,89.84,656.62,194c-2.1,101.44,84,189.72,188.57,191.09,104.93,1.38,192.32-84.65,194.13-187.73C1041.21,89.67,952.81,2.22,848.18,2.19ZM1012.76,208.9c-2.57,21.81-8.7,42.45-19.56,61.52-24.44,42.9-60.66,70.4-108.72,82-12,2.89-24.12,4.49-33.46,4.06-43.9.12-80.09-13-111.28-39.25-30.16-25.42-49.24-57.72-56.28-96.58-7.92-43.73.21-84.54,24.66-121.82,6.78-10.34,14-20.41,22.56-29.41a103,103,0,0,1,28.87-21.26c10.58-5.28,20.94-11,32.18-14.85a179.58,179.58,0,0,1,39.63-8.59c31.64-3.32,61.69,2.39,90,16.49,35.31,17.59,61.22,44.63,77.75,80.5a159,159,0,0,1,13.39,46.34A166.08,166.08,0,0,1,1012.76,208.9Z"/><path class="cls-2" d="M852.69,250.35c-7.31,2.9-14.7,5.32-22.61,5.76-21.4,1.18-40-5.91-56.11-19.57-20.4-17.3-35.53-38.35-43.54-64.12a117.87,117.87,0,0,1-4.93-30.08,232.81,232.81,0,0,1,.78-35.72c1.65-14.9,6.9-28,19.72-36.95,6-4.17,13.1-3.67,18.65,1.08,5.17,4.44,8.07,10.32,10.29,16.55,4.27,12,8.8,23.8,13.88,35.43,3.67,8.41,8.31,16.13,15.85,21.77,1.61,1.2,3.56,1.69,5.31,2.95-19.07,19.12-25.87,41-14.82,66.63C806,239.2,825.93,250.19,852.69,250.35Z"/><path class="cls-2" d="M827.3,136.46c11.32-7.21,22.73-12.06,35.43-13.5,12.12-1.38,24-.9,35.19,4.71,11.65,5.86,21.39,14.27,30.47,23.51,15.63,15.9,24.87,35.35,31.22,56.36,4.66,15.43,8.09,31.18,7.21,47.4-.84,15.6-3.63,30.89-10.92,45-2.81,5.42-6.08,10.6-12.82,11.88-4.61.88-9,.71-13.26-1.81-7.85-4.69-12.64-11.14-14.5-20.37-2.27-11.31-5.13-22.57-10.62-32.91a67.93,67.93,0,0,0-14.93-19.12c-1.74-1.54-1.73-2.55-.18-4.3,7.78-8.81,13.61-18.69,16-30.37A53.71,53.71,0,0,0,900,166c-10.81-20.26-27.6-31.58-51-32.06a69,69,0,0,0-19.69,2.53A10.91,10.91,0,0,1,827.3,136.46Z"/><path class="cls-2" d="M901.55,192.09c1.6,29.25-25.09,54.18-53.71,53.74A54,54,0,0,1,794.37,192c-.07-29.38,24.31-53.68,53.71-53.72C879.13,138.22,903.23,165,901.55,192.09Z"/><path class="cls-2" d="M910.91,334.39c-50.09,23.22-121.52,19.39-173.1-29.9C688.14,257,677.87,187.15,700.1,133.43a9.48,9.48,0,0,1,.21,4.44c-1.44,9.31-.93,18.6,0,27.92A163.46,163.46,0,0,0,710,208.06a201.15,201.15,0,0,0,40,65.23c16.56,18,35.3,33.13,57.09,44.3,18,9.24,37,15.77,57.18,18.27,14.28,1.77,28.61,1.88,42.78-1.3a8.12,8.12,0,0,1,1.29-.16C909,334.37,909.56,334.39,910.91,334.39Z"/><path class="cls-2" d="M817.54,34.85c59.87-9.6,111.08,7.31,150.46,53.74,38.75,45.69,46.43,98.33,28.39,154.9l-.95.13c0-1.62-.08-3.25,0-4.86s.39-3.43.59-5.15a131.17,131.17,0,0,0,.06-24.59,156.62,156.62,0,0,0-9.27-42.34,199.66,199.66,0,0,0-44.43-71.17c-20.4-21.14-44-37.58-71.35-48.37-14.12-5.56-28.69-9.38-43.9-10.44-3.27-.23-6.52-.69-9.78-1Z"/></svg>