<svg id="Layer_1" data-name="Layer 1" xmlns="http://www.w3.org/2000/svg" viewBox="0 0 1921 385.56"><defs><style>.cls-1{fill:#fff;}</style></defs><title>White text no prop</title><path class="cls-1" d="M334.89,142.05v-6.78c0-37.31-13.08-56.21-37.79-56.21-13.57,0-24.22,5.82-29.55,16-6.3,10.66-7.76,20.35-7.76,46.51V249.12c0,24.71,1.46,37.31,5.33,48,4.85,12.59,17.45,20.83,32,20.83,18.41,0,30.52-10.66,35.85-32,1.94-8.23,2.43-15.5,2.91-39.24h50.39v11.14c0,70.26-30.52,107.08-88.66,107.08-32.47,0-58.14-12.6-72.19-35.86-12.12-19.86-15.51-38.76-15.51-86.72v-90.6c0-51.36,3.88-69.28,18.9-89.63,14.05-19.38,38.27-30,68.31-30,55.23,0,87.69,36.82,87.69,100.29v9.69Z"/><path class="cls-1" d="M599.42,36.91v219c0,40.69-4.84,61.53-18.41,79.94-14,18.89-37.79,29.07-66.86,29.07-29.55,0-53.3-10.18-67.35-29.07-13.56-18.41-18.41-39.25-18.41-79.94v-219H478.3V264.14c0,38.28,10.17,53.78,35.85,53.78,25.19,0,35.37-15.5,35.37-53.78V36.91Z"/><polygon class="cls-1" points="1163.69 98.93 1198.81 289.82 1198.85 289.82 1212.42 360.07 1263.78 360.07 1198.37 36.91 1130.05 36.91 1068.04 360.07 1116.53 360.07 1163.69 98.93"/><path class="cls-1" d="M1465.81,36.91v219c0,40.69-4.84,61.53-18.41,79.94-14.05,18.89-37.79,29.07-66.86,29.07-29.55,0-53.29-10.18-67.34-29.07-13.57-18.41-18.42-39.25-18.42-79.94v-219h49.91V264.14c0,38.28,10.17,53.78,35.85,53.78,25.19,0,35.37-15.5,35.37-53.78V36.91Z"/><path class="cls-1" d="M1571.91,360.07,1502.63,36.91h51.84l48.45,245.64,42.63-245.64h50.88l-62.5,323.16Z"/></svg>