<?xml version="1.0" encoding="utf-8"?>
<!-- Generator: Adobe Illustrator 23.0.1, SVG Export Plug-In . SVG Version: 6.00 Build 0)  -->
<svg version="1.1" id="Layer_1" xmlns="http://www.w3.org/2000/svg" xmlns:xlink="http://www.w3.org/1999/xlink" x="0px" y="0px"
	 viewBox="0 0 1920 1080" style="enable-background:new 0 0 1920 1080;" xml:space="preserve">
<style type="text/css">
	.st0{clip-path:url(#SVGID_2_);fill:none;stroke:#999999;stroke-width:1.4607;stroke-miterlimit:10;}
	.st1{clip-path:url(#SVGID_2_);}
	.st2{fill:none;stroke:#CCCCCC;stroke-miterlimit:10;}
</style>
<g>
	<defs>
		<rect id="SVGID_1_" width="1919.5" height="1079.5"/>
	</defs>
	<clipPath id="SVGID_2_">
		<use xlink:href="#SVGID_1_"  style="overflow:visible;"/>
	</clipPath>
	<path class="st0" d="M1266.02,1652.05"/>
	<g class="st1">
		<circle class="st2" cx="892.54" cy="709.48" r="705.67"/>
		<path class="st2" d="M186.19,1024.52C-32.05,720.62,47.44,271,382.45,81.81c97.33-54.96,181.97-79.2,290.2-88.06
			c99.52-8.14,196.02-14.42,284.26,4.2c79.74,17.09,153.63,54.01,232.2,99.21c95.46,54.7,188.53,116.26,255.53,204.28
			c231.77,304.49,151.87,741.2-152.03,959.44s-727.18,148.79-945.41-155.11"/>
		<path class="st2" d="M56.09,926.03C-153.06,634.79-60.99,179.67,287.05,25.42c111.6-49.46,185.83-58.11,306.22-56.96
			c112.14,1.07,216.11-11.4,306.36,10.63c82.23,20.07,154.9,67.42,242.72,118.84c104.02,60.53,212.13,115.43,284.28,205.19
			c235.35,292.8,148.74,724.93-142.49,934.08s-696.88,142.59-906.02-148.64"/>
		<path class="st2" d="M-74.24,828.07C-274.29,549.49-165.56,92.65,191.42-30.44c127.13-43.84,189.73-36.89,322.24-25.87
			c124.79,10.38,236.17-8.21,328.46,17.06c84.68,23.2,156.16,80.84,253.24,138.48c112.57,66.35,235.61,114.59,313.03,206.1
			c238.14,281.5,145.62,708.66-132.96,908.71s-666.58,136.39-866.63-142.18"/>
		<path class="st2" d="M-204.7,730.36C-395.65,464.45-267.5,9.48,95.65-86.05c143.58-37.77,193.63-15.58,338.26,5.22
			c137.44,19.77,256.23-5.01,350.56,23.5C871.61-31,941.9,36.93,1048.23,100.79c121.12,72.18,258.96,113.74,341.77,207
			c240.26,270.57,142.49,692.39-123.42,883.34s-636.28,130.19-827.24-135.72"/>
		<path class="st2" d="M-344.09,623.94C-525.96,370.69-358.2-15.13-9.05-150.38c163.62-2.01,197.53,5.79,354.28,36.31
			c150.09,29.22,276.29-1.8,372.66,29.93C807.48-54.64,876.57,23.54,992.17,93.62c129.68,78,282.2,112.92,370.52,207.91
			c241.77,260.01,139.37,676.11-113.88,857.98c-253.25,181.86-605.98,123.99-787.85-129.26"/>
		<path class="st2" d="M-474.67,526.48C-647.44,285.89-460.6-88.91-104.93-205.74c179.41,9.74,201.41,27.21,370.3,67.4
			c162.73,38.73,296.35,1.44,394.76,36.36C752.17-69.31,820.08,19.12,944.93,95.41c138.23,83.82,305.31,112.14,399.27,208.81
			c242.76,249.79,136.25,659.84-104.34,832.61s-575.68,117.79-748.45-122.79"/>
		<path class="st2" d="M-604.56,429.8c-163.68-227.93,42.25-591.71,404.43-690.12c195.21,21.5,205.28,48.67,386.32,98.49
			c175.35,48.26,316.4,4.68,416.85,42.79C697.54-83.18,764.26,15.48,898.37,98c146.78,89.65,328.32,111.41,428.01,209.72
			c243.3,239.91,133.12,643.57-94.8,807.25S686.2,1226.56,522.52,998.63"/>
		<path class="st2" d="M-733.76,333.95c-154.58-215.26,70.42-568.03,439.12-648.02c211,33.26,209.14,70.15,402.34,129.59
			c187.96,57.82,336.45,7.94,438.95,49.22C643.6-96.22,709.14,12.67,852.51,101.41c155.34,95.47,351.21,110.75,456.76,210.62
			c243.43,230.34,130,627.29-85.27,781.88s-515.08,105.4-669.67-109.87"/>
		<path class="st2" d="M-862.24,238.93c-145.49-202.6,98.6-544.35,473.82-605.92c226.79,45.01,212.98,91.65,418.36,160.68
			c200.56,67.41,356.5,11.21,461.05,55.65c99.38,42.24,163.75,161.34,316.38,256.3c163.89,101.3,373.98,110.16,485.51,211.53
			c243.22,221.07,126.87,611.02-75.73,756.51s-484.79,99.2-630.28-103.41"/>
		<path class="st2" d="M-983.05,151.66c-136.4-189.94,125.01-586.34,508.51-563.82c248.71,14.6,216.81,113.17,434.38,191.77
			c213.14,77,376.54,14.49,483.15,62.08C544.81-112.85,608,16.45,769.88,117.63c172.44,107.12,396.65,109.68,514.25,212.44
			c242.71,212.08,123.75,594.75-66.19,731.15s-454.49,93-590.88-96.94"/>
		<path class="st2" d="M-1111.01,57.33c-127.31-177.28,156.03-559.71,543.2-521.72c266.04,26.1,220.63,134.69,450.4,222.86
			c225.71,86.61,396.58,17.78,505.25,68.52C492.1-124.34,554.12,15.16,725.27,122.56c181,112.94,419.22,109.3,543,213.34
			c241.94,203.35,120.62,578.48-56.65,705.78s-424.19,86.8-551.49-90.48"/>
		<path class="st2" d="M-1238.22-36.2c-118.21-164.61,186.64-532.54,577.9-479.63c283.11,38.29,224.45,156.23,466.42,253.95
			c238.28,96.23,416.61,21.07,527.35,74.95c106.69,51.9,167.55,201.6,347.94,315.22c189.55,118.77,441.67,109.05,571.75,214.25
			c240.96,194.88,117.5,562.2-47.11,680.41s-393.89,80.6-512.1-84.02"/>
		<path class="st2" d="M-1364.62-128.87c-109.12-151.95,216.83-504.95,612.59-437.53c299.9,51.09,228.25,177.77,482.44,285.04
			c250.84,105.85,436.64,24.37,549.45,81.38c109.11,55.14,168.81,215.01,358.47,334.85c198.1,124.59,464.02,108.93,600.49,215.15
			c239.8,186.64,114.37,545.93-37.58,655.05s-363.59,74.4-472.71-77.55"/>
		<path class="st2" d="M-1490.19-220.65c-100.03-139.29,246.58-477.06,647.29-395.43c316.4,64.46,232.05,199.32,498.46,316.13
			c263.39,115.49,456.66,27.68,571.54,87.81c111.53,58.38,170.08,228.43,368.99,354.49c206.66,130.42,486.27,108.97,629.24,216.06
			c238.48,178.63,111.25,529.66-28.04,629.68S864,1056.29,763.98,917"/>
		<path class="st2" d="M-1614.89-311.53c-90.93-126.63,275.89-448.96,681.98-353.33c332.59,78.32,235.84,220.87,514.48,347.23
			c275.93,125.12,476.68,30.99,593.64,94.24c113.95,61.62,171.34,241.85,379.51,374.13c215.21,136.24,508.41,109.16,657.99,216.97
			c237.04,170.83,108.12,513.38-18.5,604.32s-302.99,62-393.92-64.63"/>
		<path class="st2" d="M-1738.72-401.51c-81.84-113.96,304.78-420.7,716.67-311.23c348.47,92.62,239.62,242.43,530.5,378.32
			c288.47,134.76,496.7,34.31,615.74,100.67c116.37,64.87,172.6,255.27,390.03,393.77c223.76,142.06,530.45,109.54,686.73,217.87
			c235.5,163.24,105,497.11-8.96,578.95s-272.69,55.8-354.53-58.17"/>
		<path class="st2" d="M-1859.79-492.57c-72.75-101.3,333.27-392.35,751.37-269.13c364.05,107.29,243.4,263.99,546.52,409.41
			c301,144.41,516.71,37.63,637.84,107.1c118.78,68.13,173.87,268.68,400.55,413.4c232.32,147.89,568.38,89.27,715.48,218.78
			c210.95,185.72,101.88,480.84,0.58,553.58c-101.3,72.75-242.39,49.6-315.14-51.7"/>
		<path class="st2" d="M-1981.9-580.86c-63.65-88.64,361.38-363.95,786.06-227.03c379.34,122.3,247.18,285.55,562.54,440.5
			c313.53,154.05,536.72,40.95,659.94,113.53c121.18,71.38,175.13,282.1,411.08,433.04c240.87,153.71,588.85,90.85,744.23,219.68
			c212.25,175.99,98.75,464.57,10.11,528.22c-88.64,63.65-212.09,43.4-275.75-45.24"/>
		<path class="st2" d="M-2103.31-668.25c-54.56-75.98,389.13-335.52,820.76-184.94c394.36,137.58,250.65,307.72,578.56,471.59
			c325.76,164.3,556.73,44.28,682.04,119.97c123.58,74.64,176.4,295.52,421.6,452.68c249.42,159.54,608.98,93.09,772.97,220.59
			c213.59,166.07,95.63,448.29,19.65,502.85c-75.98,54.56-181.79,37.2-236.35-38.78"/>
		<path class="st2" d="M-2224.08-754.78c-45.47-63.31,416.55-307.09,855.45-142.84c409.11,153.1,254.46,329.18,594.58,502.68
			c338.32,173.85,576.73,47.61,704.13,126.4C56.07-190.63,107.75,40.4,362.2,203.78c257.98,165.36,628.81,96.02,801.72,221.5
			c214.93,155.96,92.5,432.02,29.19,477.49c-63.31,45.47-151.5,31-196.96-32.31"/>
		<path class="st2" d="M-2344.26-840.51c-36.37-50.65,443.66-278.68,890.14-100.74c423.61,168.82,258.28,350.65,610.6,533.77
			c350.89,183.41,596.58,51.17,726.23,132.83C10.95-193.24,61.64,47.71,325.36,217.31c266.53,171.18,648.35,99.73,830.47,222.4
			c216.26,145.67,89.38,415.75,38.73,452.12c-50.65,36.37-121.2,24.8-157.57-25.85"/>
		<path class="st2" d="M1574,424.93c33.07,33.07-423.75,323.17-903.14,207.6C208.85,521.15,351.98,307.75-38.95,176.56
			c-389.9-131.57-617.29,46.1-761.01-16.27c-142.63-62.35-232.18-302.17-530.01-431.47c-300.11-130.14-670.76-7.84-884.03-81.26
			c-242.18-83.37-149.79-380.24-116.72-413.31c33.07-33.07,86.69-33.07,119.76,0"/>
		<path class="st2" d="M1704.83,488.11c22.05,22.05-454.54,299.51-944.19,171.67C282.16,534.87,434.52,314.44,29.99,175.73
			c-403.85-138.97-637.59,46.1-783.85-19.04c-145.55-65.13-235.6-315.2-543.58-449.15c-309.5-134.5-692.2-6.37-912.54-77.5
			c-239.55-77.33-144.07-364.69-122.03-386.73c22.05-22.05,57.79-22.05,79.84,0"/>
		<path class="st2" d="M1834.87,550.46c11.02,11.02-485.08,275.86-985.25,135.75C354.85,547.61,516.27,320.3,98.13,174.07
			c-417.8-146.36-657.88,46.11-806.7-21.81c-148.46-67.91-239.02-328.24-557.14-466.82c-318.88-138.86-713.61-5.2-941.06-73.74
			c-237.01-71.42-138.35-349.14-127.33-360.16c11.02-11.02,28.9-11.02,39.92,0"/>
		<path class="st2" d="M-2279.2-651.12c0,0-98.18,252.74,129.29,309.22c227.32,56.44,622.39-86.75,943.34,43.42
			c319.69,129.66,410.5,385.79,560.49,448.61c80.56,33.74,187.45-6.35,334.63-30.05c127.25-20.5,283.42-28.48,477.3,36.48
			c421.87,139.96,263.2,364.43,760.71,500.53C1432.04,795.37,1936.2,546.06,1936.2,546.06"/>
		<path class="st2" d="M-2221.42-561.3c0,0-94.49,237.52,125.94,284.85c220.01,47.24,603.26-100.3,917.11,16.86
			C-867.4-143.5-776.8,98.18-628.08,153.14c79.42,29.35,183.98-10.3,327.22-36.31c125.46-22.78,278.04-33.93,467.08,24.59
			C577.82,268.85,431.46,482.23,915.3,602.26c500.45,124.14,992.99-122.23,992.99-122.23"/>
		<path class="st2" d="M-2163.57-471.55c0,0-90.88,222.29,122.6,260.48c212.64,38.04,583.92-113.9,890.88-9.7
			c302.07,102.54,392.52,329.74,540.07,376.84c78.23,24.97,180.53-14.3,319.81-42.56c123.7-25.1,272.77-39.67,456.86,12.7
			c401.59,114.25,267.58,316.9,737.46,421.13c495.78,109.98,976.34-133.44,976.34-133.44"/>
		<path class="st2" d="M-2105.63-381.88c0,0-87.35,207.07,119.25,236.11c205.2,28.85,564.32-127.52,864.64-36.25
			c292.98,89.03,383.35,301.73,529.87,340.96c76.98,20.61,177.09-18.36,312.41-48.81c121.96-27.45,267.52-45.42,446.64,0.81
			C558.78,212,437.39,403.62,893.01,492.37c491.52,95.74,959.68-144.65,959.68-144.65"/>
		<path class="st2" d="M-2047.61-292.3c0,0-83.91,191.85,115.91,211.74c197.68,19.68,544.45-141.15,838.41-62.81
			c283.66,75.6,374.07,273.75,519.66,305.08c75.67,16.28,173.66-22.47,305-55.07C-148.4,76.81-6.34,55.47,167.79,95.56
			C549.46,183.43,440.93,363.66,882,437.3c487.66,81.42,943.03-155.85,943.03-155.85"/>
		<path class="st2" d="M-1989.47-202.83c0,0-80.57,176.67,112.56,187.38c190.07,10.54,524.28-154.77,812.18-89.37
			C-790.62-42.54-700.08,141-555.29,164.37c74.3,11.99,170.24-26.65,297.6-61.32c118.52-32.26,257.07-56.94,426.2-22.98
			c371.78,74.65,276.38,243.1,702.59,302.04c484.21,66.96,926.38-167.06,926.38-167.06"/>
		<path class="st2" d="M-1931.22-113.48c0,0-77.34,161.52,109.22,163.01c182.37,1.46,503.79-168.35,785.95-115.92
			c264.31,49.11,355.12,217.97,499.24,233.31c72.88,7.76,166.83-30.89,290.19-67.57C-129.8,64.6,5.25,36.63,169.35,64.47
			c361.93,61.42,279.9,217.65,690.96,262.34c481.18,52.31,909.72-178.27,909.72-178.27"/>
		<path class="st2" d="M-1872.82-24.27c0,0-74.22,146.43,105.87,138.64c174.56-7.55,482.95-181.83,759.71-142.48
			C-753,8.04-661.76,162.1-518.21,169.31c71.4,3.58,163.42-35.2,282.78-73.83c115.14-37.26,246.7-68.51,405.76-46.76
			c352.13,48.15,283.7,191.7,679.34,222.64c478.56,37.43,893.07-189.47,893.07-189.47"/>
		<path class="st2" d="M-1814.27,64.78c0,0-71.21,131.43,102.52,114.27c166.67-16.46,461.76-195.18,733.48-169.04
			c243.9,23.46,335.75,162.59,478.82,161.54c69.88-0.51,160.01-39.58,275.38-80.08C-110.6,51.64,17.49,17.15,171.47,32.82
			c342.38,34.84,287.76,165.2,667.71,182.94c476.33,22.25,876.42-200.68,876.42-200.68"/>
		<path class="st2" d="M-1755.53,153.64c0,0-68.31,116.54,99.18,89.9c158.68-25.24,440.21-208.31,707.25-195.6
			c233.29,11.11,325.94,135.11,468.61,125.65c68.33-4.53,156.59-44.03,267.97-86.33C-100.73,44.81,23.9,7.11,172.79,16.73
			c332.68,21.49,292.05,138.11,656.09,143.24c474.48,6.69,859.76-211.89,859.76-211.89"/>
		<path class="st2" d="M-1696.59,242.3c0,0-65.49,101.8,95.83,65.53c150.62-33.86,418.31-221.16,681.02-222.15
			c222.43-0.84,316.09,107.79,458.4,89.77c66.76-8.45,153.16-48.54,260.56-92.58C-90.66,37.72,30.54-3.16,174.33,0.44
			c323.02,8.07,296.55,110.4,644.46,103.55c472.97-9.32,843.11-223.09,843.11-223.09"/>
		<path class="st2" d="M-1637.41,330.73c0,0-62.75,87.24,92.49,41.17c142.51-42.29,396.11-233.63,654.79-248.71
			c211.35-12.32,306.23,80.66,448.19,53.89c65.18-12.29,149.72-53.13,253.16-98.84C-80.37,30.33,37.43-13.7,176.09-16.09
			C489.5-21.51,477.3,65.95,808.93,47.76c471.76-25.87,826.46-234.3,826.46-234.3"/>
		<path class="st2" d="M-1577.98,418.9c0,0-60.03,72.88,89.14,16.8c134.38-50.52,373.65-245.63,628.55-275.27
			c200.11-23.27,296.39,53.71,437.99,18c63.61-16.04,146.25-57.8,245.75-105.09C-69.84,22.62,44.6-24.53,178.11-32.87
			c303.85-18.99,305.98,53,621.22,24.15c470.77-43.08,809.8-245.51,809.8-245.51"/>
		<path class="st2" d="M-1518.26,506.79c0,0-57.29,58.75,85.79-7.57c126.28-58.53,351.03-257.04,602.32-301.82
			c188.78-33.64,286.61,26.94,427.78-17.88c62.07-19.71,142.76-62.53,238.34-111.34C-59.05,14.55,52.06-35.7,180.41-49.94
			C474.72-82.61,491.23-26.68,790-65.49c469.93-61.05,793.15-256.71,793.15-256.71"/>
		<path class="st2" d="M-1458.09,594.5c0,0-54.46,44.85,82.45-31.94c118.26-66.33,328.37-267.77,576.09-328.38
			c177.44-43.41,276.92,0.35,417.57-53.77c60.57-23.31,139.24-67.33,230.94-117.6c103.2-56.58,211.03-109.91,334.22-130
			c284.78-46.45,315.65-7.15,597.97-55.25c469.12-79.91,776.5-267.92,776.5-267.92"/>
		<path class="st2" d="M-1396.7,682.76c0,0-51.5,31.18,79.1-56.31c110.35-73.93,305.84-277.71,549.86-354.94
			c166.2-52.6,267.35-26.08,407.36-89.65c59.12-26.84,135.68-72.19,223.53-123.85C-35.46-1.6,69.12-57.99,187.14-83.88
			c275.26-60.37,320.41-38.25,586.34-94.95c468.21-99.81,759.84-279.13,759.84-279.13"/>
		<path class="st2" d="M-1333.35,772.28c0,0-48.33,17.72,75.76-80.67c102.62-81.37,283.63-286.8,523.62-381.49
			c155.17-61.22,257.93-52.38,397.15-125.54c57.73-30.33,132.07-77.12,216.12-130.1C-21.17-8.26,80.21-67.7,193.08-99.32
			c265.7-74.43,325.01-70.01,574.72-134.64c467.03-120.89,743.19-290.33,743.19-290.33"/>
		<path class="st2" d="M-1267.56,863.43c0,0-44.91,4.41,72.41-105.04c95.08-88.7,261.96-295.01,497.39-408.05
			c144.47-69.36,248.65-78.57,386.94-161.42c56.4-33.79,128.42-82.11,208.72-136.36C-4.51-13.37,93.72-75.83,201.46-113.12
			c256.09-88.63,329.38-102.38,563.09-174.34C1229.92-430.76,1491.09-589,1491.09-589"/>
		<path class="st2" d="M-1193.97,961.55c0,0-41.2-8.8,69.07-129.41c87.75-95.98,241.06-302.37,471.16-434.61
			c134.19-77.12,239.55-104.67,376.73-197.3C-221.88,163-152.31,113.08-75.7,57.62c95.58-69.2,190.69-134.66,293.34-177.57
			c246.4-102.98,333.43-135.3,551.47-214.04c462.96-167.19,709.88-312.75,709.88-312.75"/>
		<path class="st2" d="M-1118.31,1060.92c0,0-37.21-21.98,65.72-153.78c80.64-103.26,221.15-308.96,444.93-461.17
			c124.44-84.64,230.6-130.72,366.52-233.19c53.93-40.65,120.93-92.23,193.9-148.86c93.48-72.55,185.51-141,283.12-189.46
			C472.46-243,572.92-294.23,775.72-379.27c459.52-192.7,693.23-323.95,693.23-323.95"/>
		<path class="st2" d="M-1040.83,1161.54c0,0-32.94-35.18,62.37-178.15c73.74-110.6,202.38-314.96,418.7-487.72
			c115.26-92.05,221.82-156.75,356.32-269.07c52.78-44.08,117.08-97.34,186.5-155.12C74.33-4.48,163.32-75.89,255.95-129.87
			C482.56-261.93,596.07-332.33,784.17-423.3c454.71-219.92,676.57-335.16,676.57-335.16"/>
		<path class="st2" d="M-961.33,1264.09c0,0-28.43-48.47,59.03-202.51c67.01-118.03,184.84-320.58,392.46-514.28
			c106.69-99.53,213.18-182.77,346.11-304.96c51.7-47.52,113.17-102.49,179.09-161.37C104.33,1.52,190.33-72.81,278.04-132.27
			c216.48-146.76,342.57-236.48,516.6-333.14c448.14-248.89,659.92-346.37,659.92-346.37"/>
		<path class="st2" d="M-877.96,1370.5c0,0-23.72-61.87,55.68-226.88c60.43-125.57,168.52-326.11,366.23-540.84
			c98.71-107.2,204.67-208.81,335.9-340.84C-69.49,210.96-10.98,154.28,51.53,94.32c86.53-83.01,169.58-160.2,252.46-225.14
			c206.14-161.51,344.28-270.61,504.97-372.83c439.43-279.55,643.27-357.57,643.27-357.57"/>
		<path class="st2" d="M-817.12,1454.38c0,0-18.86-75.42,52.34-251.25c53.96-133.26,153.33-331.79,340-567.39
			C-333.51,520.54-228.5,400.86-99.1,259.01C-49.42,204.56,6,146.19,65.18,85.14C149.14-1.47,229.3-81.48,307.42-151.89
			c195.6-176.28,345.17-304.67,493.35-412.53c428.22-311.73,626.61-368.78,626.61-368.78"/>
		<path class="st2" d="M-775.94,1518.6c0,0-71.04-455.67,835.11-1462.31s1323.7-1081.14,1323.7-1081.14"/>
	</g>
	<g class="st1">
		<circle class="st2" cx="1044.77" cy="841.56" r="818.8"/>
		<path class="st2" d="M644.95,1644.98c-419.7-110.97-680.42-572.17-520.15-988.82c46.56-121.05,104.44-205.23,194.8-293.04
			c83.09-80.75,164.84-157.59,257.59-206.07c84.01-43.56,177.4-65.05,281.1-82.58c125.84-21.49,254.59-35.08,379.55-5.74
			c432.25,101.51,683.07,551.45,572.1,971.15c-110.97,419.7-541.17,669.97-960.86,558.99"/>
		<path class="st2" d="M455.78,1652.84C53.57,1546.49-199.94,1071.09-2.23,676.1c63.4-126.66,123.47-189.19,232.09-277.03
			c101.18-81.82,185.06-169.72,282.12-216.62c88.43-42.73,188.44-53.98,305.02-72.77c137.8-22.59,275.11-53.25,405.96-26.15
			c426.82,88.41,668.26,539.19,561.91,941.4s-518.62,642.05-920.83,535.7"/>
		<path class="st2" d="M266.81,1661.35c-384.72-101.73-624.6-590.96-395.88-964.66C-47.62,563.6,13.55,523.61,140.31,435.67
			c119.37-82.82,205.37-181.68,306.65-227.17c92.93-41.74,199.48-42.9,328.93-62.96c149.76-23.69,295.51-71.33,432.36-46.55
			c420.98,76.22,653.45,526.93,551.73,911.65c-101.73,384.72-496.07,614.14-880.79,512.41"/>
		<path class="st2" d="M77.89,1670.17c-367.23-97.1-588.35-599-333.75-952.58c100.66-139.8,161.85-156.88,306.67-245.01
			C188.46,388.83,276.51,278.96,382,234.85c97.45-40.74,210.51-31.82,352.85-53.14c161.71-24.79,315.79-89.32,458.77-66.96
			c414.81,64.88,638.65,514.67,541.54,881.9c-97.1,367.23-473.52,586.22-840.76,489.12"/>
		<path class="st2" d="M-125.46,1677.79c-349.75-92.48-484.36-561.71-271.61-940.5c144.99-122.58,181.11-140.62,343.97-229
			c155.94-84.63,246.02-205.55,355.71-248.28c101.98-39.73,221.55-20.74,376.76-43.33c173.67-25.89,335.99-107.21,485.17-87.37
			c408.37,54.3,623.84,502.41,531.36,852.15c-92.48,349.75-450.97,558.31-800.72,465.83"/>
		<path class="st2" d="M-314.3,1686.93c-332.26-87.85-441.65-561.31-209.48-928.43c167.81-123.71,200.4-124.31,381.26-212.99
			c174.27-85.45,266.36-217.46,380.24-258.84c106.51-38.7,232.58-9.66,400.68-33.52c185.62-26.99,356.1-124.97,511.57-107.78
			c401.71,44.43,609.03,490.15,521.17,822.41c-87.85,332.26-428.42,530.39-760.68,442.54"/>
		<path class="st2" d="M-501.94,1696.26c-314.77-83.23-398.95-560.91-147.35-916.35c190.63-124.84,219.7-107.96,418.55-196.98
			c192.6-86.23,286.71-229.36,404.77-269.39c111.06-37.66,243.62,1.41,424.59-23.7c197.58-28.09,376.16-142.61,537.98-128.19
			c394.89,35.19,594.22,477.88,510.99,792.66c-83.23,314.77-405.88,502.47-720.65,419.24"/>
		<path class="st2" d="M-688.35,1705.81c-297.29-78.61-356.24-560.5-85.21-904.27c213.44-125.98,239.01-91.57,455.84-180.97
			c210.95-86.98,307.07-241.24,429.3-279.95c115.6-36.61,254.66,12.49,448.51-13.89c209.54-29.19,396.16-160.1,564.38-148.59
			c387.95,26.52,579.41,465.62,500.8,762.91c-78.61,297.29-383.33,474.56-680.61,395.95"/>
		<path class="st2" d="M-873.52,1715.58c-279.8-73.98-313.54-560.1-23.08-892.19c236.26-127.11,258.32-75.16,493.13-164.96
			c229.3-87.7,327.43-253.11,453.83-290.5c120.15-35.54,265.69,23.57,472.42-4.08c221.49-30.29,416.12-177.43,590.78-169
			c380.92,18.38,564.6,453.36,490.62,733.16c-73.98,279.8-360.78,446.64-640.58,372.66"/>
		<path class="st2" d="M-1046.09,1726.64c-262.31-69.36-320.89-617.19,39.06-880.11C-773.6,676.02-729.4,787.8-476.61,697.57
			c247.65-88.39,347.79-264.97,478.36-301.05c124.71-34.47,276.73,34.65,496.34,5.74c233.45-31.39,436.06-194.6,617.19-189.41
			c373.83,10.71,549.79,441.1,480.43,703.41c-69.36,262.31-338.23,418.73-600.54,349.37"/>
		<path class="st2" d="M-1230.27,1736.63c-244.82-64.73-273.47-616.25,101.19-868.03c257.43-173,296.94-42.28,567.72-132.95
			c266-89.07,368.15-276.81,502.89-311.61C70.8,390.67,229.3,469.78,461.78,439.6c245.41-32.49,455.98-211.59,643.59-209.82
			c366.7,3.46,534.98,428.84,470.25,673.66c-64.73,244.82-315.68,390.81-560.5,326.08"/>
		<path class="st2" d="M-1413.19,1746.8c-227.34-60.11-226-614.52,163.32-855.95c281.71-174.7,316.25-25.81,605.01-116.94
			c284.35-89.74,388.52-288.65,527.42-322.16c133.82-32.28,298.8,56.8,544.17,25.36c257.36-33.59,475.89-228.39,670-230.23
			c359.57-3.4,520.18,416.58,460.06,643.91c-60.11,227.34-293.13,362.9-520.47,302.79"/>
		<path class="st2" d="M-1594.75,1757.15c-209.85-55.49-178.61-612.1,225.46-843.87c306.2-175.63,335.56-9.33,642.3-100.93
			c302.69-90.39,408.89-300.48,551.95-332.72c138.38-31.18,309.84,67.88,568.08,35.18c269.32-34.69,495.82-244.99,696.4-250.64
			c352.44-9.91,505.37,404.31,449.88,614.16s-270.58,334.98-480.43,279.5"/>
		<path class="st2" d="M-1774.91,1767.66c-192.36-50.86-131.4-609.09,287.59-831.79c330.83-175.84,354.86,7.16,679.59-84.92
			c321.04-91.03,429.25-312.3,576.48-343.27c142.94-30.07,320.87,78.96,592,44.99c281.27-35.79,515.76-261.38,722.8-271.04
			c345.35-16.11,490.56,392.05,439.69,584.41s-248.03,307.07-440.4,256.2"/>
		<path class="st2" d="M-1953.63,1778.35c-174.87-46.24-84.41-605.57,349.73-819.71c355.56-175.38,374.17,23.65,716.88-68.91
			c339.38-91.66,449.62-324.11,601.01-353.83c147.5-28.95,331.91,90.04,615.91,54.8c293.23-36.89,535.72-277.55,749.21-291.45
			c338.31-22.03,475.75,379.79,429.51,554.66c-46.24,174.87-225.49,279.15-400.36,232.91"/>
		<path class="st2" d="M-2130.92,1789.2c-157.39-41.62-37.69-601.6,411.86-807.63c380.33-174.31,393.47,40.16,754.18-52.9
			c357.72-92.29,469.99-335.92,625.55-364.38C-187.27,536.47,3.61,665.4,300.49,628.9c305.19-37.99,555.73-293.48,775.61-311.86
			c331.33-27.69,460.94,367.53,419.32,524.91c-41.62,157.39-202.94,251.24-360.32,209.62"/>
		<path class="st2" d="M-2306.51,1797.05c-139.9-36.99,8.75-597.25,473.99-795.56c405.11-172.67,412.76,56.67,791.47-36.89
			c376.06-92.91,490.36-347.72,650.08-374.93c156.62-26.68,353.98,112.19,663.74,74.43c317.14-39.09,574.73-339.63,802.01-332.27
			c325.94,10.56,446.13,355.27,409.14,495.17s-180.39,223.32-320.29,186.33"/>
		<path class="st2" d="M-2481,1808.14c-122.41-32.37,54.88-592.57,536.13-783.48c429.87-170.53,432.06,73.18,828.76-20.88
			c394.4-93.52,510.72-359.52,674.61-385.49c161.18-25.54,365.02,123.27,687.66,84.24c329.1-40.19,594.22-353.32,828.42-352.68
			c319.92,0.88,431.32,343.01,398.95,465.42s-157.84,195.41-280.25,163.04"/>
		<path class="st2" d="M-2654.2,1819.53c-104.92-27.74,100.71-587.6,598.26-771.4c454.6-167.93,451.53,90.47,866.05-4.87
			c412.91-93.37,531.09-371.3,699.14-396.04c165.74-24.4,376.05,134.35,711.57,94.05c341.06-41.29,613.9-366.18,854.82-373.08
			c313.79-8.99,416.51,330.74,388.77,435.67S1329.13,971.35,1224.2,943.6"/>
		<path class="st2" d="M-2826.19,1831.21c-87.44-23.12,146.24-582.39,660.4-759.32c479.26-164.92,470.79,106.87,903.34,11.14
			c431.21-94.09,551.45-383.09,723.67-406.6c170.29-23.25,387.09,145.43,735.49,103.87c353.01-42.39,633.81-378.18,881.23-393.49
			c307.54-19.03,401.7,318.48,378.58,405.92s-112.74,139.58-200.18,116.46"/>
		<path class="st2" d="M-2997.06,1843.17c-69.95-18.5,191.48-576.97,722.53-747.24c503.84-161.55,490.05,123.27,940.64,27.15
			c449.51-94.81,571.85-394.55,748.2-417.15c174.89-21.78,398.13,156.51,759.4,113.68c364.97-43.49,654.04-389.29,907.63-413.9
			c301.13-29.22,386.9,306.22,368.4,376.17s-90.19,111.66-160.14,93.17"/>
		<path class="st2" d="M1444.79,83.81c54.02,5.2-140.81,602.1-655.29,852.5c-495.82,241.32-525.2-55.38-972.01,115.74
			c-446.17,170.01-518.6,496.92-693.29,547.17c-173.71,49.47-430.9-99.13-792.98,4.95c-364.73,105.02-606.28,488.1-851.4,579.8
			c-278.35,104.13-414.77-229.84-409.57-283.86s53.2-93.59,107.21-88.4"/>
		<path class="st2" d="M1608.56,43.8c36.01,3.46-185.84,603.65-718.56,850.64c-520.56,241.35-546.86-68.45-1011.4,105.98
			c-464.12,173.69-536.76,511.9-715.79,561.55c-178.38,49.13-443.58-108.28-818.17-0.86c-376.35,108.04-624.39,505.24-874.15,604.21
			c-271.54,107.6-398.17-220.14-394.71-256.15c3.46-36.01,35.46-62.4,71.47-58.93"/>
		<path class="st2" d="M1771,3.63c18.01,1.73-230.65,605.02-781.83,848.78c-545.25,241.13-568.52-81.51-1050.8,96.22
			c-482.06,177.37-554.92,526.89-738.29,575.94c-183.04,48.79-456.26-117.42-843.35-6.67c-387.97,111.06-642.69,522.09-896.9,628.62
			c-264.9,111.01-381.57-210.44-379.84-228.44c1.73-18.01,17.73-31.2,35.74-29.47"/>
		<path class="st2" d="M-2799.02,1964.7c0,0,98.66,298.73,343.99,181.39c245.17-117.26,493.15-537.07,876.56-657.45
			c381.91-119.91,652.26,42.37,832.92-12.11c97.02-29.26,163.12-144.05,277.39-273.91c98.79-112.28,232.71-234.7,454.22-319.65
			c480.98-186.1,504.63,131.98,1050.48-113.42c554.6-249.33,821.92-844.66,821.92-844.66"/>
		<path class="st2" d="M-2680.99,2002.46c0,0,90.73,282.38,323.01,162.04c231.83-120.11,466.03-535.09,833.48-661.86
			c364.08-125.61,623.58,23.88,797.29-36.7c92.76-32.35,157.1-145.02,266.14-274.04c95.5-113.01,223.87-235.61,436.3-322.75
			C437.77,679.4,464.25,978.47,985.99,728.77c539.66-258.26,798.74-842.4,798.74-842.4"/>
		<path class="st2" d="M-2562.95,2040.1c0,0,82.72,266.09,302.03,142.7c218.45-122.91,438.67-532.98,790.39-666.27
			c346.12-131.17,594.8,5.47,761.66-61.29c88.47-35.39,151.06-146.06,254.9-274.17c92.21-113.78,214.92-236.86,418.37-325.85
			c443.85-194.15,473.47,86.19,971.06-167.34c525.02-267.51,775.56-840.14,775.56-840.14"/>
		<path class="st2" d="M-2444.89,2077.62c0,0,74.64,249.85,281.04,123.35c205-125.64,411.07-530.71,747.3-670.69
			c328-136.55,565.91-12.85,726.03-85.88c84.13-38.37,144.99-147.15,243.65-274.3c88.92-114.59,205.97-238.13,400.44-328.96
			c425.18-198.59,457.95,62.56,931.35-194.3c510.7-277.1,752.38-837.88,752.38-837.88"/>
		<path class="st2" d="M-2326.82,2114.98c0,0,66.49,233.69,260.06,104c191.5-128.3,383.22-528.25,704.22-675.1
			c309.75-141.7,536.95-31.04,690.41-110.46c79.76-41.28,138.88-148.31,232.4-274.43c85.61-115.46,197.04-239.42,382.52-332.06
			c406.55-203.07,442.43,38.39,891.64-221.25c496.67-287.07,729.2-835.62,729.2-835.62"/>
		<path class="st2" d="M-2208.74,2152.16c0,0,58.27,217.63,239.08,84.66c177.94-130.86,355.11-525.55,661.13-679.51
			c291.37-146.58,507.91-49.1,654.78-135.05c75.37-44.11,132.74-149.52,221.16-274.56c82.29-116.37,188.11-240.73,364.59-335.16
			c387.94-207.59,426.87,13.63,851.93-248.21c482.91-297.47,706.01-833.36,706.01-833.36"/>
		<path class="st2" d="M-2090.64,2189.15c0,0,49.99,201.69,218.1,65.31c164.34-133.31,326.74-522.58,618.04-683.92
			c272.87-151.14,478.81-67,619.15-159.64c70.97-46.85,126.55-150.8,209.91-274.69c78.95-117.33,179.2-242.06,346.66-338.26
			c369.35-212.17,411.23-11.76,812.22-275.17c469.38-308.35,682.83-831.1,682.83-831.1"/>
		<path class="st2" d="M-1972.51,2225.91c0,0,41.64,185.88,197.11,45.97c150.7-135.62,298.14-519.27,574.95-688.33
			c254.29-155.3,449.7-84.72,583.53-184.23c66.57-49.5,120.32-152.14,198.66-274.83c75.58-118.35,170.29-243.43,328.73-341.37
			c350.78-216.82,395.48-37.8,772.51-302.13c456.05-319.73,659.65-828.84,659.65-828.84"/>
		<path class="st2" d="M-1854.36,2262.41c0,0,33.26,170.22,176.13,26.62c137.06-137.76,269.32-515.57,531.87-692.74
			c235.67-159.03,420.59-102.27,547.9-208.82c62.18-52.04,114.03-153.54,187.42-274.96c72.18-119.41,161.39-244.83,310.81-344.47
			c332.23-221.53,379.55-64.52,732.8-329.09c442.85-331.68,636.47-826.58,636.47-826.58"/>
		<path class="st2" d="M-1736.18,2298.61c0,0,24.87,154.75,155.15,7.28c123.43-139.72,240.33-511.43,488.78-697.16
			c217.05-162.25,391.53-119.64,512.27-233.41c57.83-54.49,107.69-155,176.17-275.09c68.73-120.53,152.48-246.27,292.88-347.57
			c313.68-226.33,363.4-91.93,693.09-356.05c429.71-344.24,613.29-824.32,613.29-824.32"/>
		<path class="st2" d="M-1617.97,2334.47c0,0,16.51,139.48,134.17-12.07c109.85-141.49,211.24-506.77,445.69-701.57
			c198.51-164.93,362.55-136.82,476.64-258c53.52-56.84,101.28-156.51,164.93-275.22c65.24-121.7,143.58-247.76,274.95-350.67
			C173.56,505.73,225.39,616.88,531.8,353.93c416.55-357.46,590.11-822.06,590.11-822.06"/>
		<path class="st2" d="M-1499.72,2369.95c0,0,8.22,124.41,113.18-31.41c96.36-143.05,182.16-501.54,402.61-705.98
			c180.12-167.03,333.69-153.84,441.02-282.59c49.28-59.12,94.81-158.08,153.68-275.35c61.7-122.91,134.66-249.28,257.03-353.77
			C144.38,484.65,198,571.95,481.47,310.88c403.24-371.39,566.93-819.8,566.93-819.8"/>
		<path class="st2" d="M-1381.43,2405.02c0,0,0.05,109.55,92.2-50.76c83.01-144.42,153.19-495.7,359.52-710.39
			c161.97-168.54,304.99-170.7,405.39-307.18c45.11-61.32,88.27-159.7,142.43-275.48c58.09-124.17,125.73-250.86,239.1-356.88
			c258-241.28,313.04-178.41,573.96-436.93c389.65-386.06,543.75-817.54,543.75-817.54"/>
		<path class="st2" d="M-1263.1,2439.62c0,0-7.92,94.88,71.22-70.11c69.85-145.61,124.52-489.22,316.43-714.8
			c144.17-169.46,276.47-187.44,369.76-331.77c41.02-63.46,81.65-161.36,131.19-275.61c54.4-125.48,116.78-252.49,221.17-359.98
			c239.36-246.48,295.43-208.6,534.25-463.89C756.57-178.06,901.5-591.81,901.5-591.81"/>
		<path class="st2" d="M-1144.48,2473.73c0,0-15.65,80.35,50.24-89.45c56.91-146.67,96.32-482.1,273.35-719.21
			c126.8-169.84,248.17-204.1,334.14-356.36c37.02-65.58,74.95-163.05,119.94-275.74c50.63-126.83,107.8-254.16,203.24-363.08
			c220.66-251.8,277.3-239.4,494.54-490.84c360.99-417.82,497.38-813.02,497.38-813.02"/>
		<path class="st2" d="M-1024.37,2507.43c0,0-23.08,65.93,29.25-108.8c44.22-147.64,68.81-474.37,230.26-723.63
			c109.96-169.77,220.09-220.7,298.51-380.95c33.11-67.67,68.17-164.78,108.69-275.87C-310.9,889.98-258.89,762.29-172.34,652
			C29.51,394.78,86.26,381.25,282.49,134.2c345.49-434.96,474.2-810.76,474.2-810.76"/>
		<path class="st2" d="M-901.58,2540.8c0,0-30.19,51.54,8.27-128.14c31.8-148.59,42.21-466.12,187.17-728.04
			c93.72-169.35,192.24-237.28,262.88-405.54c29.29-69.77,61.31-166.53,97.45-276c42.79-129.62,89.68-257.66,167.39-369.29
			C4.5,371.03,60.87,331.21,236.7,89.03c328.87-452.95,451.02-808.5,451.02-808.5"/>
		<path class="st2" d="M-775.4,2573.84c0,0-36.95,37.1-12.71-147.49c19.64-149.59,16.76-457.47,144.08-732.45
			c78.13-168.73,164.61-253.88,227.25-430.13c25.55-71.88,54.35-168.29,86.2-276.13c38.7-131.05,80.53-259.48,149.46-372.39
			C-17.27,346.87,38.2,280.47,194.31,43.53c310.83-471.79,427.84-806.24,427.84-806.24"/>
		<path class="st2" d="M-637.09,2607.36c0,0-43.38,22.54-33.69-166.83c7.71-150.7-7.38-448.63,101-736.86
			c63.21-168.1,137.19-270.53,191.63-454.72c21.88-74.02,47.31-170.06,74.96-276.27c34.49-132.5,71.31-261.31,131.54-375.49
			C-27.1,323.12,26.96,229.95,164.03-1.49c291.05-491.4,404.66-803.98,404.66-803.98"/>
		<path class="st2" d="M-496.02,2640.48c0,0-49.53,7.79-54.68-186.18c-4.03-151.97-30.08-439.83,57.91-741.27
			c48.93-167.62,109.95-287.25,156-479.31c18.27-76.2,40.18-171.83,63.71-276.4c30.14-133.95,62-263.16,113.61-378.59
			C-34.37,298.94,17.75,178.93,136.53-46.91c269.14-511.7,381.48-801.72,381.48-801.72"/>
		<path class="st2" d="M-352.38,2673.37c0,0-55.46-7.18-75.66-205.52c-15.63-153.44-51.31-431.34,14.82-745.69
			c35.24-167.49,82.87-304.06,120.37-503.9c14.72-78.42,32.96-173.57,52.46-276.53c25.64-135.39,52.61-265,95.68-381.69
			C-39.3,274.53,10.35,127.73,111.59-92.56c244.74-532.52,358.3-799.46,358.3-799.46"/>
		<path class="st2" d="M-205.51,2706.49c0,0-61.23-22.4-96.64-224.87c-27.13-155.12-71.17-423.43-28.26-750.1
			c22.04-167.85,55.93-320.98,84.75-528.48c11.21-80.7,25.66-175.29,41.22-276.66c21-136.8,43.13-266.82,77.76-384.8
			C-41.23,250.4,5.43,77.01,89.88-137.98C307.36-691.58,425-935.17,425-935.17"/>
		<path class="st2" d="M-52.33,2740.21c0,0-66.91-37.88-117.62-244.22c-38.59-157.02-89.85-416.34-71.35-754.51
			c9.24-168.83,29.1-338.01,49.12-553.07c7.73-83.03,18.27-176.96,29.97-276.79c16.19-138.18,33.57-268.59,59.83-387.9
			C-37.06,226.97,6.08,27.34,74.48-182.79c187.04-574.63,311.94-794.94,311.94-794.94"/>
		<path class="st2" d="M64.06,2770.4c0,0-72.56-53.6-138.61-263.56c-50.06-159.12-107.65-410.21-114.44-758.92
			c-3.32-170.5,2.35-355.16,13.49-577.66c4.28-85.42,10.81-178.58,18.72-276.92c11.23-139.52,23.93-270.31,41.9-391
			C-69.88,200.14-30.75-25.2,22.29-231.14c153.26-595.16,288.75-792.68,288.75-792.68"/>
		<path class="st2" d="M148.32,2797.5c0,0-399.95-355.5-331.77-1925.54S203.55-1073,203.55-1073"/>
	</g>
</g>
</svg>
