<svg xmlns="http://www.w3.org/2000/svg" viewBox="0 0 382.77 382.86"><defs><style>.cls-1{fill:none;}.cls-2{fill:#e11e25;}</style></defs><title>red_prop</title><g id="Layer_2" data-name="Layer 2"><g id="Layer_1-2" data-name="Layer 1"><path class="cls-1" d="M342.52,119.53C326,83.65,300.08,56.62,264.76,39c-28.29-14.1-58.35-19.82-90-16.5a178.94,178.94,0,0,0-39.62,8.6C123.9,35,113.55,40.7,103,46A102.89,102.89,0,0,0,74.1,67.24c-8.59,9-15.78,19.06-22.56,29.4C27.09,133.93,19,174.74,26.88,218.47c7,38.85,26.11,71.15,56.28,96.58,31.19,26.29,67.38,39.37,111.27,39.24,9.35.44,21.52-1.16,33.47-4.05,48.06-11.62,84.27-39.12,108.71-82,10.87-19.07,17-39.71,19.56-61.53a166,166,0,0,0-.26-40.83A158.9,158.9,0,0,0,342.52,119.53Z"/><path class="cls-2" d="M191.6,0C85.37,0-1.86,87.64,0,191.76c-2.1,101.43,84,189.72,188.57,191.09,104.93,1.37,192.32-84.65,194.13-187.73C384.63,87.48,296.23,0,191.6,0ZM356.17,206.7c-2.56,21.82-8.69,42.46-19.56,61.53-24.44,42.89-60.65,70.39-108.71,82-12,2.89-24.12,4.49-33.47,4.05-43.89.13-80.08-13-111.27-39.24C53,289.62,33.92,257.32,26.88,218.47c-7.92-43.73.21-84.54,24.66-121.83,6.78-10.34,14-20.4,22.56-29.4A102.89,102.89,0,0,1,103,46c10.59-5.27,20.94-11,32.19-14.84a178.94,178.94,0,0,1,39.62-8.6c31.64-3.32,61.7,2.4,90,16.5,35.32,17.59,61.23,44.62,77.76,80.5a158.9,158.9,0,0,1,13.39,46.34A166,166,0,0,1,356.17,206.7Z"/><path class="cls-2" d="M196.11,248.16c-7.31,2.9-14.7,5.32-22.62,5.76-21.39,1.18-40-5.91-56.1-19.57C97,217.05,81.85,196,73.85,170.23a118.32,118.32,0,0,1-4.94-30.08,234,234,0,0,1,.79-35.72c1.64-14.91,6.89-28,19.71-37,6-4.16,13.11-3.66,18.65,1.09,5.18,4.44,8.07,10.32,10.3,16.54,4.27,12,8.8,23.81,13.87,35.44,3.67,8.41,8.32,16.13,15.86,21.77,1.6,1.2,3.55,1.69,5.31,2.94-19.07,19.13-25.88,41-14.83,66.64C149.41,237,169.35,248,196.11,248.16Z"/><path class="cls-2" d="M170.72,134.27c11.32-7.21,22.73-12.06,35.43-13.5,12.11-1.38,24-.91,35.19,4.7,11.65,5.87,21.39,14.27,30.47,23.52,15.63,15.9,24.87,35.35,31.22,56.36,4.66,15.43,8.08,31.17,7.21,47.4-.84,15.6-3.63,30.89-10.92,45-2.81,5.42-6.09,10.6-12.82,11.88-4.61.88-9,.71-13.26-1.81-7.85-4.7-12.65-11.14-14.5-20.37-2.27-11.32-5.13-22.57-10.62-32.91a68,68,0,0,0-14.94-19.12c-1.73-1.55-1.73-2.55-.18-4.31,7.79-8.81,13.62-18.69,16-30.36a53.73,53.73,0,0,0-5.59-36.94c-10.81-20.25-27.6-31.57-51-32.06a69.27,69.27,0,0,0-19.69,2.54A12,12,0,0,1,170.72,134.27Z"/><path class="cls-2" d="M245,189.9c1.6,29.25-25.09,54.17-53.71,53.74a54,54,0,0,1-53.47-53.85c-.07-29.38,24.31-53.68,53.71-53.72C222.54,136,246.65,162.81,245,189.9Z"/><path class="cls-2" d="M254.33,332.2c-50.09,23.22-121.52,19.39-173.11-29.91-49.66-47.45-59.93-117.33-37.7-171a9.62,9.62,0,0,1,.21,4.44c-1.44,9.31-.93,18.6,0,27.92a163.68,163.68,0,0,0,9.67,42.26,200.9,200.9,0,0,0,40.05,65.23c16.55,18.05,35.3,33.14,57.08,44.3,18,9.24,37,15.78,57.19,18.28,14.28,1.76,28.6,1.88,42.78-1.3a8,8,0,0,1,1.29-.16C252.38,332.18,253,332.2,254.33,332.2Z"/><path class="cls-2" d="M161,32.66C220.82,23.06,272,40,311.42,86.4c38.75,45.68,46.43,98.32,28.38,154.9l-.94.13c0-1.62-.08-3.25,0-4.86s.39-3.43.59-5.15a131.27,131.27,0,0,0,.06-24.6,156.63,156.63,0,0,0-9.27-42.33,199.58,199.58,0,0,0-44.44-71.18c-20.39-21.13-44-37.58-71.34-48.36-14.12-5.56-28.69-9.39-43.9-10.44-3.27-.23-6.52-.69-9.78-1Z"/></g></g></svg>