<?xml version="1.0" encoding="utf-8"?>
<!-- Generator: Adobe Illustrator 23.0.1, SVG Export Plug-In . SVG Version: 6.00 Build 0)  -->
<svg version="1.1" id="Layer_1" xmlns="http://www.w3.org/2000/svg" xmlns:xlink="http://www.w3.org/1999/xlink" x="0px" y="0px"
	 viewBox="0 0 1920 1080" style="enable-background:new 0 0 1920 1080;" xml:space="preserve">
<style type="text/css">
	.st0{opacity:0.1;clip-path:url(#SVGID_2_);}
	.st1{fill:none;stroke:#000000;stroke-width:0.574;stroke-miterlimit:10;}
	.st2{fill:none;stroke:#000000;stroke-width:0.5;stroke-miterlimit:10;}
</style>
<g>
	<defs>
		<rect id="SVGID_1_" width="1920" height="1080"/>
	</defs>
	<clipPath id="SVGID_2_">
		<use xlink:href="#SVGID_1_"  style="overflow:visible;"/>
	</clipPath>
	<g class="st0">
		<path class="st1" d="M1992.25-49.09c0,0,134.78,175.47,132.7,238.73c-2.08,63.26-104.07,52.59-104.16,129.03
			c-0.1,76.44,145.66,273.01,145.56,349.46s-142.16,128.99-142.26,208.07s124.76,191.27,120.67,258.48s-98.12,98.73-98.12,98.73"/>
		<path class="st1" d="M1964.03-50.28c0,0,134.78,175.47,132.7,238.73s-103.31,52.88-103.42,129.2
			c-0.11,76.31,144.91,272.85,144.82,349.29c-0.1,76.44-141.02,129.02-141.15,208.39c-0.14,79.37,123.6,190.83,119.56,258.16
			c-4.04,67.33-97.51,99.54-97.51,99.54"/>
		<path class="st1" d="M1935.81-51.47c0,0,134.78,175.47,132.7,238.73c-2.08,63.26-102.56,53.18-102.68,129.36
			C1965.7,392.8,2110,589.3,2109.9,665.75c-0.1,76.44-139.87,129.05-140.04,208.72s122.44,190.39,118.45,257.83
			c-3.99,67.44-96.89,100.36-96.89,100.36"/>
		<path class="st1" d="M1907.59-52.66c0,0,134.78,175.47,132.7,238.73c-2.08,63.26-101.81,53.47-101.94,129.52
			s143.43,272.52,143.34,348.97s-138.72,129.09-138.93,209.05c-0.21,79.96,121.28,189.95,117.34,257.5s-96.28,101.17-96.28,101.17"
			/>
		<path class="st1" d="M1879.37-53.85c0,0,134.78,175.47,132.7,238.73s-101.06,53.76-101.2,129.69s142.69,272.36,142.6,348.8
			s-137.57,129.12-137.82,209.37s120.12,189.51,116.23,257.17c-3.89,67.67-95.66,101.98-95.66,101.98"/>
		<path class="st1" d="M1851.15-55.04c0,0,134.78,175.47,132.7,238.73s-100.3,54.06-100.46,129.85
			c-0.16,75.79,141.95,272.19,141.86,348.64s-136.42,129.16-136.71,209.7c-0.29,80.54,118.96,189.07,115.12,256.85
			s-95.04,102.8-95.04,102.8"/>
		<path class="st1" d="M1822.93-56.23c0,0,134.78,175.47,132.7,238.73c-2.08,63.26-99.55,54.35-99.72,130.02
			c-0.17,75.66,141.21,272.03,141.12,348.47c-0.1,76.44-135.27,129.19-135.6,210.03s117.8,188.62,114.01,256.52
			c-3.79,67.9-94.43,103.61-94.43,103.61"/>
		<path class="st1" d="M1794.7-57.42c0,0,134.78,175.47,132.7,238.73s-98.8,54.65-98.98,130.18
			c-0.18,75.53,140.47,271.87,140.37,348.31c-0.1,76.44-134.13,129.22-134.49,210.35s116.64,188.18,112.9,256.19
			c-3.74,68.01-93.81,104.43-93.81,104.43"/>
		<path class="st1" d="M1766.48-58.61c0,0,134.78,175.47,132.7,238.73s-98.04,54.94-98.24,130.34s139.73,271.7,139.63,348.15
			S1807.6,787.86,1807.2,869.28c-0.4,81.42,115.48,187.74,111.79,255.87s-93.19,105.24-93.19,105.24"/>
		<path class="st1" d="M1738.26-59.81c0,0,134.78,175.47,132.7,238.73s-97.29,55.23-97.5,130.51s138.99,271.54,138.89,347.98
			c-0.1,76.44-131.83,129.29-132.27,211.01s114.32,187.3,110.68,255.54c-3.64,68.24-92.58,106.06-92.58,106.06"/>
		<path class="st1" d="M1710.04-61c0,0,134.78,175.47,132.7,238.73c-2.08,63.26-96.54,55.53-96.76,130.67
			s138.25,271.38,138.15,347.82c-0.1,76.44-130.68,129.33-131.16,211.33c-0.47,82.01,113.16,186.86,109.57,255.21
			c-3.59,68.35-91.96,106.87-91.96,106.87"/>
		<path class="st1" d="M1681.82-62.19c0,0,134.78,175.47,132.7,238.73s-95.79,55.82-96.02,130.83
			c-0.23,75.01,137.51,271.21,137.41,347.66s-129.53,129.36-130.05,211.66s112,186.42,108.46,254.89
			c-3.54,68.47-91.35,107.68-91.35,107.68"/>
		<path class="st1" d="M1653.6-63.38c0,0,134.78,175.47,132.7,238.73s-95.03,56.11-95.28,131s136.77,271.05,136.67,347.49
			c-0.1,76.44-128.39,129.39-128.93,211.99c-0.55,82.59,110.84,185.98,107.34,254.56s-90.73,108.5-90.73,108.5"/>
		<path class="st1" d="M1625.38-64.57c0,0,134.78,175.47,132.7,238.73c-2.08,63.26-94.28,56.41-94.54,131.16
			c-0.26,74.75,136.03,270.88,135.93,347.33c-0.1,76.44-127.24,129.43-127.82,212.31s109.68,185.54,106.23,254.23
			c-3.44,68.69-90.11,109.31-90.11,109.31"/>
		<path class="st1" d="M1597.16-65.76c0,0,134.78,175.47,132.7,238.73s-93.53,56.7-93.8,131.32
			c-0.27,74.62,135.29,270.72,135.19,347.17c-0.1,76.44-126.09,129.46-126.71,212.64c-0.62,83.18,108.52,185.1,105.12,253.91
			c-3.4,68.81-89.5,110.13-89.5,110.13"/>
		<path class="st1" d="M1568.94-66.95c0,0,134.78,175.47,132.7,238.73s-92.78,57-93.06,131.49c-0.28,74.49,134.55,270.56,134.45,347
			s-124.94,129.5-125.6,212.97s107.36,184.66,104.01,253.58c-3.35,68.92-88.88,110.94-88.88,110.94"/>
		<path class="st1" d="M1540.72-68.14c0,0,134.78,175.47,132.7,238.73c-2.08,63.26-92.02,57.29-92.31,131.65
			s133.81,270.39,133.71,346.84c-0.1,76.44-123.79,129.53-124.49,213.29s106.2,184.22,102.9,253.25
			c-3.3,69.04-88.26,111.76-88.26,111.76"/>
		<path class="st1" d="M1512.5-69.33c0,0,134.78,175.47,132.7,238.73s-91.27,57.58-91.57,131.82s133.07,270.23,132.97,346.67
			c-0.1,76.44-122.65,129.56-123.38,213.62c-0.74,84.06,105.04,183.78,101.79,252.93S1577.35,1227,1577.35,1227"/>
		<path class="st1" d="M1484.28-70.52c0,0,134.78,175.47,132.7,238.73s-90.52,57.88-90.83,131.98s132.33,270.07,132.23,346.51
			s-121.5,129.6-122.27,213.95c-0.77,84.35,103.88,183.33,100.68,252.6c-3.2,69.26-87.03,113.39-87.03,113.39"/>
		<path class="st1" d="M1456.06-71.72c0,0,134.78,175.47,132.7,238.73s-89.77,58.17-90.09,132.14
			c-0.33,73.97,131.58,269.9,131.49,346.35c-0.1,76.44-120.35,129.63-121.16,214.28s102.72,182.89,99.57,252.27
			c-3.15,69.38-86.42,114.2-86.42,114.2"/>
		<path class="st1" d="M1427.84-72.91c0,0,134.78,175.47,132.7,238.73c-2.08,63.26-89.01,58.47-89.35,132.31
			c-0.34,73.84,130.84,269.74,130.75,346.18c-0.1,76.44-119.2,129.67-120.05,214.6c-0.85,84.94,101.56,182.45,98.46,251.95
			s-85.8,115.01-85.8,115.01"/>
		<path class="st1" d="M1399.61-74.1c0,0,134.78,175.47,132.7,238.73s-88.26,58.76-88.61,132.47s130.1,269.58,130.01,346.02
			c-0.1,76.44-118.05,129.7-118.94,214.93s100.4,182.01,97.35,251.62c-3.05,69.61-85.18,115.83-85.18,115.83"/>
		<path class="st1" d="M1371.39-75.29c0,0,134.78,175.47,132.7,238.73s-87.51,59.05-87.87,132.63s129.36,269.41,129.27,345.86
			s-116.9,129.73-117.83,215.26c-0.92,85.52,99.24,181.57,96.24,251.29s-84.57,116.64-84.57,116.64"/>
		<path class="st1" d="M1343.17-76.48c0,0,134.78,175.47,132.7,238.73c-2.08,63.26-86.75,59.35-87.13,132.8
			s128.62,269.25,128.53,345.69c-0.1,76.44-115.76,129.77-116.72,215.58s98.08,181.13,95.13,250.97
			c-2.95,69.83-83.95,117.46-83.95,117.46"/>
		<path class="st1" d="M1314.95-77.67c0,0,134.78,175.47,132.7,238.73s-86,59.64-86.39,132.96
			c-0.39,73.32,127.88,269.08,127.79,345.53c-0.1,76.44-114.61,129.8-115.61,215.91c-1,86.11,96.92,180.69,94.02,250.64
			c-2.9,69.95-83.33,118.27-83.33,118.27"/>
		<path class="st1" d="M1286.73-78.86c0,0,134.78,175.47,132.7,238.73s-85.25,59.93-85.65,133.12
			c-0.4,73.19,127.14,268.92,127.05,345.36s-113.46,129.84-114.5,216.24s95.76,180.25,92.91,250.31s-82.72,119.09-82.72,119.09"/>
		<path class="st1" d="M1258.51-80.05c0,0,134.78,175.47,132.7,238.73s-84.5,60.23-84.91,133.29
			c-0.41,73.06,126.4,268.76,126.3,345.2c-0.1,76.44-112.31,129.87-113.39,216.56s94.6,179.81,91.8,249.98
			c-2.8,70.18-82.1,119.9-82.1,119.9"/>
		<path class="st1" d="M1230.29-81.24c0,0,134.78,175.47,132.7,238.73c-2.08,63.26-83.74,60.52-84.17,133.45
			s125.66,268.59,125.56,345.04c-0.1,76.44-111.16,129.9-112.27,216.89c-1.11,86.99,93.44,179.37,90.68,249.66
			c-2.76,70.29-81.49,120.71-81.49,120.71"/>
		<path class="st1" d="M1202.07-82.43c0,0,134.78,175.47,132.7,238.73s-82.99,60.82-83.43,133.62s124.92,268.43,124.82,344.87
			S1266.15,764.72,1265,852s92.28,178.93,89.57,249.33c-2.71,70.4-80.87,121.53-80.87,121.53"/>
		<path class="st1" d="M1173.85-83.62c0,0,134.78,175.47,132.7,238.73s-82.24,61.11-82.69,133.78
			c-0.45,72.67,124.18,268.27,124.08,344.71c-0.1,76.44-108.87,129.97-110.05,217.54c-1.18,87.57,91.12,178.49,88.46,249
			c-2.66,70.52-80.25,122.34-80.25,122.34"/>
		<path class="st1" d="M1145.63-84.82c0,0,134.78,175.47,132.7,238.73c-2.08,63.26-81.48,61.4-81.95,133.94
			c-0.46,72.54,123.44,268.1,123.34,344.55c-0.1,76.44-107.72,130.01-108.94,217.87s89.96,178.04,87.35,248.68
			s-79.64,123.16-79.64,123.16"/>
		<path class="st1" d="M1117.41-86.01c0,0,134.78,175.47,132.7,238.73s-80.73,61.7-81.21,134.11
			c-0.47,72.41,122.7,267.94,122.6,344.38c-0.1,76.44-106.57,130.04-107.83,218.2c-1.26,88.16,88.8,177.6,86.24,248.35
			c-2.56,70.75-79.02,123.97-79.02,123.97"/>
		<path class="st1" d="M1089.19-87.2c0,0,134.78,175.47,132.7,238.73s-79.98,61.99-80.47,134.27
			c-0.49,72.28,121.96,267.78,121.86,344.22s-105.42,130.07-106.72,218.52s87.64,177.16,85.13,248.02
			c-2.51,70.86-78.4,124.79-78.4,124.79"/>
		<path class="st1" d="M1060.97-88.39c0,0,134.78,175.47,132.7,238.73c-2.08,63.26-79.23,62.29-79.73,134.43
			c-0.5,72.15,121.22,267.61,121.12,344.06c-0.1,76.44-104.28,130.11-105.61,218.85c-1.33,88.74,86.48,176.72,84.02,247.7
			c-2.46,70.97-77.79,125.6-77.79,125.6"/>
		<path class="st1" d="M1032.74-89.58c0,0,134.78,175.47,132.7,238.73s-78.47,62.58-78.98,134.6
			c-0.51,72.02,120.48,267.45,120.38,343.89c-0.1,76.44-103.13,130.14-104.5,219.18s85.32,176.28,82.91,247.37
			c-2.41,71.09-77.17,126.42-77.17,126.42"/>
		<path class="st1" d="M1004.52-90.77c0,0,134.78,175.47,132.7,238.73s-77.72,62.87-78.24,134.76S1178.71,550,1178.62,626.45
			s-101.98,130.17-103.39,219.5s84.16,175.84,81.8,247.04c-2.36,71.2-76.56,127.23-76.56,127.23"/>
		<path class="st1" d="M976.3-91.96c0,0,134.78,175.47,132.7,238.73s-76.97,63.17-77.5,134.92s119,267.12,118.9,343.56
			c-0.1,76.44-100.83,130.21-102.28,219.83c-1.45,89.62,83,175.4,80.69,246.72s-75.94,128.04-75.94,128.04"/>
		<path class="st1" d="M948.08-93.15c0,0,134.78,175.47,132.7,238.73c-2.08,63.26-76.22,63.46-76.76,135.09
			c-0.55,71.63,118.26,266.96,118.16,343.4c-0.1,76.44-99.68,130.24-101.17,220.16c-1.48,89.92,81.84,174.96,79.58,246.39
			c-2.26,71.43-75.32,128.86-75.32,128.86"/>
		<path class="st1" d="M919.86-94.34c0,0,134.78,175.47,132.7,238.73s-75.46,63.75-76.02,135.25s117.51,266.79,117.42,343.24
			S995.42,753.15,993.9,843.36c-1.52,90.21,80.68,174.52,78.47,246.06c-2.21,71.54-74.71,129.67-74.71,129.67"/>
		<path class="st1" d="M891.64-95.53c0,0,134.78,175.47,132.7,238.73c-2.08,63.26-74.71,64.05-75.28,135.42
			c-0.57,71.37,116.77,266.63,116.68,343.07s-97.39,130.31-98.95,220.81c-1.56,90.5,79.52,174.08,77.36,245.74
			s-74.09,130.49-74.09,130.49"/>
		<path class="st1" d="M863.42-96.73c0,0,134.78,175.47,132.7,238.73s-73.96,64.34-74.54,135.58
			c-0.58,71.24,116.03,266.47,115.94,342.91c-0.1,76.44-96.24,130.34-97.84,221.14c-1.6,90.79,78.36,173.64,76.25,245.41
			s-73.47,131.3-73.47,131.3"/>
		<path class="st1" d="M835.2-97.92c0,0,134.78,175.47,132.7,238.73c-2.08,63.26-73.21,64.64-73.8,135.74s115.29,266.3,115.2,342.75
			c-0.1,76.44-95.09,130.38-96.72,221.47c-1.63,91.09,77.2,173.2,75.13,245.08c-2.07,71.89-72.86,132.12-72.86,132.12"/>
		<path class="st1" d="M806.98-99.11c0,0,134.78,175.47,132.7,238.73s-72.45,64.93-73.06,135.91
			c-0.61,70.98,114.55,266.14,114.46,342.58s-93.94,130.41-95.61,221.79c-1.67,91.38,76.04,172.76,74.02,244.76
			c-2.02,72-72.24,132.93-72.24,132.93"/>
		<path class="st1" d="M778.76-100.3c0,0,134.78,175.47,132.7,238.73c-2.08,63.26-71.7,65.22-72.32,136.07
			s113.81,265.97,113.72,342.42c-0.1,76.44-92.79,130.45-94.5,222.12c-1.71,91.67,74.88,172.31,72.91,244.43
			s-71.63,133.74-71.63,133.74"/>
		<path class="st1" d="M750.54-101.49c0,0,134.78,175.47,132.7,238.73c-2.08,63.26-70.95,65.52-71.58,136.23
			s113.07,265.81,112.97,342.26c-0.1,76.44-91.65,130.48-93.39,222.45c-1.75,91.97,73.72,171.87,71.8,244.1
			c-1.92,72.23-71.01,134.56-71.01,134.56"/>
		<path class="st1" d="M722.32-102.68c0,0,134.78,175.47,132.7,238.73s-70.19,65.81-70.84,136.4
			c-0.64,70.59,112.33,265.65,112.23,342.09s-90.5,130.51-92.28,222.77c-1.78,92.26,72.56,171.43,70.69,243.77
			c-1.87,72.34-70.39,135.37-70.39,135.37"/>
		<path class="st1" d="M694.1-103.87c0,0,134.78,175.47,132.7,238.73c-2.08,63.26-69.44,66.11-70.1,136.56
			S868.29,536.9,868.19,613.35c-0.1,76.44-89.35,130.55-91.17,223.1s71.4,170.99,69.58,243.45s-69.78,136.19-69.78,136.19"/>
		<path class="st1" d="M665.88-105.06c0,0,134.78,175.47,132.7,238.73s-68.69,66.4-69.36,136.72s110.85,265.32,110.75,341.76
			s-88.2,130.58-90.06,223.43s70.24,170.55,68.47,243.12s-69.16,137-69.16,137"/>
		<path class="st1" d="M637.65-106.25c0,0,134.78,175.47,132.7,238.73c-2.08,63.26-67.94,66.69-68.62,136.89
			s110.11,265.16,110.01,341.6c-0.1,76.44-87.05,130.62-88.95,223.75s69.08,170.11,67.36,242.79s-68.54,137.82-68.54,137.82"/>
		<path class="st1" d="M609.43-107.44c0,0,134.78,175.47,132.7,238.73c-2.08,63.26-67.18,66.99-67.88,137.05
			c-0.69,70.07,109.37,264.99,109.27,341.44c-0.1,76.44-85.91,130.65-87.84,224.08s67.92,169.67,66.25,242.47
			c-1.67,72.8-67.93,138.63-67.93,138.63"/>
		<path class="st1" d="M581.21-108.64c0,0,134.78,175.47,132.7,238.73s-66.43,67.28-67.14,137.22S755.4,532.14,755.31,608.58
			c-0.1,76.44-84.76,130.68-86.73,224.41s66.76,169.23,65.14,242.14s-67.31,139.44-67.31,139.44"/>
		<path class="st1" d="M552.99-109.83c0,0,134.78,175.47,132.7,238.73c-2.08,63.26-65.68,67.57-66.4,137.38
			c-0.72,69.8,107.89,264.67,107.79,341.11c-0.1,76.44-83.61,130.72-85.62,224.73c-2.01,94.02,65.6,168.79,64.03,241.81
			s-66.7,140.26-66.7,140.26"/>
		<path class="st1" d="M524.77-111.02c0,0,134.78,175.47,132.7,238.73s-64.93,67.87-65.66,137.54
			c-0.73,69.67,107.15,264.5,107.05,340.95s-82.46,130.75-84.51,225.06c-2.05,94.31,64.44,168.35,62.92,241.49
			c-1.52,73.14-66.08,141.07-66.08,141.07"/>
		<path class="st1" d="M496.55-112.21c0,0,134.78,175.47,132.7,238.73c-2.08,63.26-64.17,68.16-64.91,137.71
			s106.41,264.34,106.31,340.78c-0.1,76.44-81.31,130.79-83.4,225.39c-2.08,94.6,63.28,167.91,61.81,241.16
			s-65.46,141.89-65.46,141.89"/>
		<path class="st1" d="M468.33-113.4c0,0,134.78,175.47,132.7,238.73c-2.08,63.26-63.42,68.46-64.17,137.87
			c-0.75,69.41,105.67,264.17,105.57,340.62s-80.17,130.82-82.29,225.71c-2.12,94.89,62.12,167.47,60.7,240.83
			c-1.43,73.37-64.85,142.7-64.85,142.7"/>
		<path class="st1" d="M440.11-114.59c0,0,134.78,175.47,132.7,238.73s-62.67,68.75-63.43,138.03S614.3,526.18,614.2,602.63
			c-0.1,76.44-79.02,130.85-81.17,226.04s60.96,167.02,59.58,240.51s-64.23,143.52-64.23,143.52"/>
		<path class="st1" d="M411.89-115.78c0,0,134.78,175.47,132.7,238.73c-2.08,63.26-61.91,69.04-62.69,138.2
			s104.19,263.85,104.09,340.29c-0.1,76.44-77.87,130.89-80.06,226.37c-2.19,95.48,59.8,166.58,58.47,240.18
			c-1.33,73.6-63.61,144.33-63.61,144.33"/>
		<path class="st1" d="M383.67-116.97c0,0,134.78,175.47,132.7,238.73s-61.16,69.34-61.95,138.36
			c-0.79,69.02,103.44,263.68,103.35,340.13s-76.72,130.92-78.95,226.7s58.64,166.14,57.36,239.85c-1.28,73.71-63,145.15-63,145.15"
			/>
		<path class="st1" d="M355.45-118.16c0,0,134.78,175.47,132.7,238.73c-2.08,63.26-60.41,69.63-61.21,138.53
			c-0.8,68.89,102.7,263.52,102.61,339.96c-0.1,76.44-75.57,130.96-77.84,227.02s57.48,165.7,56.25,239.53
			s-62.38,145.96-62.38,145.96"/>
		<path class="st1" d="M327.23-119.35c0,0,134.78,175.47,132.7,238.73c-2.08,63.26-59.66,69.93-60.47,138.69
			c-0.82,68.76,101.96,263.36,101.87,339.8c-0.1,76.44-74.42,130.99-76.73,227.35c-2.31,96.36,56.32,165.26,55.14,239.2
			s-61.77,146.77-61.77,146.77"/>
		<path class="st1" d="M299.01-120.54c0,0,134.78,175.47,132.7,238.73c-2.08,63.26-58.9,70.22-59.73,138.85
			c-0.83,68.63,101.22,263.19,101.13,339.64c-0.1,76.44-73.28,131.02-75.62,227.68c-2.34,96.65,55.16,164.82,54.03,238.87
			s-61.15,147.59-61.15,147.59"/>
		<path class="st1" d="M270.78-121.74c0,0,134.78,175.47,132.7,238.73c-2.08,63.26-58.15,70.51-58.99,139.02
			s100.48,263.03,100.39,339.47c-0.1,76.44-72.13,131.06-74.51,228s54,164.38,52.92,238.55c-1.08,74.17-60.53,148.4-60.53,148.4"/>
		<path class="st1" d="M242.56-122.93c0,0,134.78,175.47,132.7,238.73s-57.4,70.81-58.25,139.18s99.74,262.87,99.65,339.31
			c-0.1,76.44-70.98,131.09-73.4,228.33s52.84,163.94,51.81,238.22c-1.03,74.28-59.92,149.22-59.92,149.22"/>
		<path class="st1" d="M214.34-124.12c0,0,134.78,175.47,132.7,238.73s-56.65,71.1-57.51,139.34c-0.86,68.24,99,262.7,98.9,339.15
			s-69.83,131.13-72.29,228.66c-2.46,97.53,51.68,163.5,50.7,237.89c-0.98,74.39-59.3,150.03-59.3,150.03"/>
		<path class="st1" d="M186.12-125.31c0,0,134.78,175.47,132.7,238.73c-2.08,63.26-55.89,71.39-56.77,139.51
			s98.26,262.54,98.16,338.98s-68.68,131.16-71.18,228.98c-2.49,97.82,50.52,163.06,49.59,237.56s-58.68,150.85-58.68,150.85"/>
		<path class="st1" d="M157.9-126.5c0,0,134.78,175.47,132.7,238.73c-2.08,63.26-55.14,71.69-56.03,139.67S332.09,514.27,332,590.72
			c-0.1,76.44-67.54,131.19-70.07,229.31c-2.53,98.12,49.36,162.62,48.48,237.24s-58.07,151.66-58.07,151.66"/>
		<path class="st1" d="M129.68-127.69c0,0,134.78,175.47,132.7,238.73c-2.08,63.26-54.39,71.98-55.29,139.83
			s96.78,262.21,96.68,338.66c-0.1,76.44-66.39,131.23-68.96,229.64s48.2,162.18,47.37,236.91
			c-0.84,74.73-57.45,152.47-57.45,152.47"/>
		<path class="st1" d="M101.46-128.88c0,0,134.78,175.47,132.7,238.73c-2.08,63.26-53.63,72.28-54.55,140
			c-0.91,67.72,96.04,262.05,95.94,338.49c-0.1,76.44-65.24,131.26-67.85,229.96c-2.61,98.7,47.04,161.74,46.26,236.58
			s-56.84,153.29-56.84,153.29"/>
		<path class="st1" d="M73.24-130.07c0,0,134.78,175.47,132.7,238.73s-52.88,72.57-53.81,140.16
			c-0.92,67.59,95.3,261.88,95.2,338.33c-0.1,76.44-64.09,131.3-66.74,230.29c-2.64,98.99,45.88,161.29,45.15,236.26
			c-0.74,74.96-56.22,154.1-56.22,154.1"/>
		<path class="st1" d="M45.02-131.26c0,0,134.78,175.47,132.7,238.73c-2.08,63.26-52.13,72.86-53.07,140.33
			s94.56,261.72,94.46,338.16s-62.94,131.33-65.62,230.62s44.72,160.85,44.04,235.93s-55.6,154.92-55.6,154.92"/>
		<path class="st1" d="M16.8-132.45c0,0,134.78,175.47,132.7,238.73s-51.38,73.16-52.33,140.49c-0.95,67.33,93.82,261.56,93.72,338
			c-0.1,76.44-61.8,131.36-64.51,230.94s43.56,160.41,42.92,235.6c-0.64,75.19-54.99,155.73-54.99,155.73"/>
		<path class="st1" d="M-11.42-133.65c0,0,134.78,175.47,132.7,238.73c-2.08,63.26-50.62,73.45-51.59,140.65
			s93.08,261.39,92.98,337.84s-60.65,131.4-63.4,231.27c-2.76,99.87,42.4,159.97,41.81,235.28c-0.59,75.3-54.37,156.55-54.37,156.55
			"/>
		<path class="st1" d="M-39.64-134.84c0,0,134.78,175.47,132.7,238.73s-49.87,73.75-50.84,140.82
			c-0.97,67.07,92.34,261.23,92.24,337.67s-59.5,131.43-62.29,231.6c-2.79,100.17,41.24,159.53,40.7,234.95
			c-0.54,75.42-53.75,157.36-53.75,157.36"/>
		<path class="st1" d="M-67.86-136.03c0,0,134.78,175.47,132.7,238.73c-2.08,63.26-49.12,74.04-50.1,140.98s91.6,261.07,91.5,337.51
			S47.88,712.66,45.05,813.11c-2.83,100.46,40.08,159.09,39.59,234.62c-0.49,75.53-53.14,158.18-53.14,158.18"/>
		<path class="st1" d="M-96.08-137.22c0,0,134.78,175.47,132.7,238.73s-48.37,74.33-49.36,141.14S78.11,503.55,78.01,580
			c-0.1,76.44-57.2,131.5-60.07,232.25s38.92,158.65,38.48,234.3c-0.44,75.65-52.52,158.99-52.52,158.99"/>
		<path class="st1" d="M-124.31-138.41c0,0,134.78,175.47,132.7,238.73s-47.61,74.63-48.62,141.31
			c-1.01,66.68,90.11,260.74,90.02,337.18S-6.27,710.34-9.17,811.39s37.76,158.21,37.37,233.97c-0.39,75.76-51.91,159.8-51.91,159.8
			"/>
		<path class="st1" d="M-152.53-139.6c0,0,134.78,175.47,132.7,238.73s-46.86,74.92-47.88,141.47s89.37,260.57,89.28,337.02
			s-54.91,131.57-57.85,232.91c-2.94,101.34,36.6,157.77,36.26,233.64c-0.34,75.87-51.29,160.62-51.29,160.62"/>
		<path class="st1" d="M-180.75-140.79c0,0,134.78,175.47,132.7,238.73s-46.11,75.21-47.14,141.63S-6.56,499.98-6.65,576.43
			c-0.1,76.44-53.76,131.6-56.74,233.23s35.44,157.33,35.15,233.32c-0.29,75.99-50.67,161.43-50.67,161.43"/>
		<path class="st1" d="M-208.97-141.98c0,0,134.78,175.47,132.7,238.73c-2.08,63.26-45.35,75.51-46.4,141.8
			c-1.05,66.29,87.89,260.25,87.8,336.69S-87.49,706.87-90.5,808.79s34.28,156.89,34.04,232.99
			c-0.24,76.1-50.06,162.25-50.06,162.25"/>
		<path class="st1" d="M-237.19-143.17c0,0,134.78,175.47,132.7,238.73s-44.6,75.8-45.66,141.96S-63,497.6-63.09,574.04
			s-51.46,131.67-54.52,233.89s33.12,156.45,32.93,232.66c-0.2,76.22-49.44,163.06-49.44,163.06"/>
		<path class="st1" d="M-265.41-144.36c0,0,134.78,175.47,132.7,238.73c-2.08,63.26-43.85,76.1-44.92,142.13
			c-1.07,66.03,86.41,259.92,86.32,336.36c-0.1,76.44-50.31,131.7-53.41,234.21c-3.09,102.51,31.96,156,31.82,232.34
			c-0.15,76.33-48.82,163.88-48.82,163.88"/>
		<path class="st1" d="M-293.63-145.55c0,0,134.78,175.47,132.7,238.73s-43.1,76.39-44.18,142.29
			c-1.08,65.9,85.67,259.76,85.58,336.2c-0.1,76.44-49.17,131.74-52.3,234.54s30.8,155.56,30.71,232.01
			c-0.1,76.44-48.21,164.69-48.21,164.69"/>
	</g>
	<g class="st0">
		<path class="st2" d="M1.29-85.74c0,0,89.12-93.31,186.12-93.18c97,0.12,187.9,76.41,333.91,75.16s277.1-75.82,407.09-74.22
			c130,1.6,172.79,168.37,284.79,168.52c112,0.14,231.21-167.86,352.21-167.71c121,0.15,355.79,168.61,355.79,168.61"/>
		<path class="st2" d="M1.28-73.72c0,0,89.12-93.31,186.12-93.18c97,0.12,188.69,76.57,333.91,75.29
			c145.22-1.28,277-75.55,407-73.95c130,1.6,173.31,167.4,284.88,167.7s231.21-167.46,352.21-167.3S1921.18,3.45,1921.18,3.45"/>
		<path class="st2" d="M1.26-61.69c0,0,89.12-93.31,186.12-93.18c97,0.12,189.47,76.74,333.9,75.43s276.91-75.28,406.9-73.68
			c130,1.6,173.83,166.42,284.98,166.89c111.15,0.47,231.21-167.05,352.21-166.9c121,0.15,355.79,168.61,355.79,168.61"/>
		<path class="st2" d="M1.25-49.66c0,0,89.12-93.31,186.12-93.18s190.25,76.9,333.9,75.56s276.81-75.01,406.81-73.41
			c130,1.6,174.35,165.45,285.07,166.08s231.21-166.64,352.21-166.49c121,0.15,355.79,168.61,355.79,168.61"/>
		<path class="st2" d="M1.23-37.64c0,0,89.12-93.31,186.12-93.18s191.03,77.07,333.9,75.7c142.87-1.37,276.72-74.74,406.72-73.14
			c130,1.6,174.87,164.47,285.17,165.26s231.21-166.24,352.21-166.08c121,0.15,355.79,168.61,355.79,168.61"/>
		<path class="st2" d="M1.22-25.61c0,0,89.12-93.31,186.12-93.18c97,0.12,191.82,77.23,333.9,75.84s276.62-74.47,406.62-72.87
			s175.39,163.5,285.26,164.45c109.88,0.95,231.21-165.83,352.21-165.68c121,0.15,355.79,168.61,355.79,168.61"/>
		<path class="st2" d="M1.2-13.58c0,0,89.12-93.31,186.12-93.18c97,0.12,192.6,77.39,333.9,75.97s276.53-74.2,406.53-72.6
			s175.91,162.52,285.36,163.64c109.45,1.11,231.21-165.42,352.21-165.27c121,0.15,355.79,168.61,355.79,168.61"/>
		<path class="st2" d="M1.19-1.56c0,0,89.12-93.31,186.12-93.18c97,0.12,193.38,77.56,333.9,76.11
			c140.52-1.45,276.43-73.93,406.43-72.32S1104.07,70.59,1213.1,71.87C1322.12,73.14,1444.31-93.15,1565.31-93
			c121,0.15,355.79,168.61,355.79,168.61"/>
		<path class="st2" d="M1.17,10.47c0,0,89.12-93.31,186.12-93.18c97,0.12,194.17,77.72,333.9,76.24s276.34-73.65,406.34-72.05
			s176.95,160.57,285.55,162.01s231.21-164.61,352.21-164.46s355.79,168.61,355.79,168.61"/>
		<path class="st2" d="M1.16,22.5c0,0,89.12-93.31,186.12-93.18c97,0.12,194.95,77.88,333.9,76.38s276.24-73.38,406.24-71.78
			s177.47,159.59,285.65,161.2c108.18,1.6,231.21-164.2,352.21-164.05c121,0.15,355.79,168.61,355.79,168.61"/>
		<path class="st2" d="M1.14,34.52c0,0,89.12-93.31,186.12-93.18s195.73,78.05,333.9,76.51s276.15-73.11,406.15-71.51
			s177.99,158.62,285.74,160.38c107.75,1.76,231.21-163.8,352.21-163.64c121,0.15,355.79,168.61,355.79,168.61"/>
		<path class="st2" d="M1.13,46.55c0,0,89.12-93.31,186.12-93.18s196.51,78.21,333.9,76.65C658.54,28.45,797.2-42.83,927.2-41.22
			s178.51,157.64,285.84,159.57c107.33,1.93,231.21-163.39,352.21-163.24c121,0.15,355.79,168.61,355.79,168.61"/>
		<path class="st2" d="M1.11,58.58c0,0,89.12-93.31,186.12-93.18s197.3,78.38,333.9,76.79c136.61-1.59,275.96-72.57,405.96-70.97
			s179.03,156.67,285.93,158.76c106.9,2.09,231.21-162.98,352.21-162.83s355.79,168.61,355.79,168.61"/>
		<path class="st2" d="M1.1,70.6c0,0,89.12-93.31,186.12-93.18s198.08,78.54,333.9,76.92c135.82-1.62,275.87-72.3,405.86-70.7
			s179.55,155.69,286.03,157.94c106.48,2.25,231.21-162.58,352.21-162.42c121,0.15,355.79,168.61,355.79,168.61"/>
		<path class="st2" d="M1.08,82.63c0,0,89.12-93.31,186.12-93.18s198.86,78.7,333.9,77.06S796.87-5.53,926.87-3.92
			s180.07,154.72,286.12,157.13C1319.05,155.62,1444.2-8.96,1565.2-8.81c121,0.15,355.79,168.61,355.79,168.61"/>
		<path class="st2" d="M1.07,94.66c0,0,89.12-93.31,186.12-93.18s199.65,78.87,333.9,77.19S796.76,6.91,926.76,8.51
			s180.59,153.74,286.22,156.32s231.2-161.76,352.2-161.61c121,0.15,355.79,168.61,355.79,168.61"/>
		<path class="st2" d="M1.05,106.68c0,0,89.12-93.31,186.12-93.18s200.43,79.03,333.9,77.33c133.47-1.7,275.58-71.49,405.58-69.88
			s181.11,152.77,286.31,155.5s231.2-161.36,352.2-161.2c121,0.15,355.79,168.61,355.79,168.61"/>
		<path class="st2" d="M1.04,118.71c0,0,89.12-93.31,186.12-93.18s201.21,79.19,333.9,77.46c132.69-1.73,275.49-71.22,405.48-69.61
			s181.63,151.79,286.41,154.69s231.2-160.95,352.2-160.8s355.79,168.61,355.79,168.61"/>
		<path class="st2" d="M1.02,130.74c0,0,89.12-93.31,186.12-93.18s201.99,79.36,333.9,77.6c131.91-1.76,275.39-70.94,405.39-69.34
			s182.15,150.81,286.5,153.87c104.35,3.06,231.2-160.54,352.2-160.39c121,0.15,355.79,168.61,355.79,168.61"/>
		<path class="st2" d="M1.01,142.76c0,0,89.12-93.31,186.12-93.18s202.78,79.52,333.9,77.73c131.12-1.79,275.3-70.67,405.3-69.07
			s182.67,149.84,286.6,153.06c103.93,3.22,231.2-160.14,352.2-159.98s355.79,168.61,355.79,168.61"/>
		<path class="st2" d="M0.99,154.79c0,0,89.12-93.31,186.12-93.18s203.56,79.68,333.9,77.87c130.34-1.81,275.2-70.4,405.2-68.8
			s183.19,148.86,286.69,152.25s231.2-159.73,352.2-159.58c121,0.15,355.79,168.61,355.79,168.61"/>
		<path class="st2" d="M0.98,166.82c0,0,89.12-93.31,186.12-93.18c97,0.12,204.34,79.85,333.9,78.01
			C650.55,149.8,796.1,81.51,926.1,83.11S1109.81,231,1212.89,234.54c103.08,3.55,231.2-159.32,352.2-159.17
			s355.79,168.61,355.79,168.61"/>
		<path class="st2" d="M0.96,178.84c0,0,89.12-93.31,186.12-93.18c97,0.12,205.13,80.01,333.9,78.14
			c128.78-1.87,275.01-69.86,405.01-68.26s184.23,146.91,286.89,150.62s231.2-158.92,352.2-158.76
			c121,0.15,355.79,168.61,355.79,168.61"/>
		<path class="st2" d="M0.95,190.87c0,0,89.12-93.31,186.12-93.18c97,0.12,205.91,80.18,333.9,78.28
			c127.99-1.9,274.92-69.59,404.92-67.99s184.75,145.94,286.98,149.81c102.23,3.87,231.2-158.51,352.2-158.36
			s355.79,168.61,355.79,168.61"/>
		<path class="st2" d="M0.93,202.9c0,0,89.12-93.31,186.12-93.18c97,0.12,206.69,80.34,333.9,78.41
			c127.21-1.93,274.82-69.32,404.82-67.72s185.27,144.96,287.08,148.99c101.81,4.03,231.2-158.1,352.2-157.95
			c121,0.15,355.79,168.61,355.79,168.61"/>
		<path class="st2" d="M0.91,214.92c0,0,89.12-93.31,186.12-93.18c97,0.12,207.47,80.5,333.9,78.55
			c126.43-1.96,274.73-69.05,404.73-67.45c130,1.6,185.79,143.99,287.17,148.18s231.2-157.69,352.2-157.54
			c121,0.15,355.79,168.61,355.79,168.61"/>
		<path class="st2" d="M0.9,226.95c0,0,89.12-93.31,186.12-93.18c97,0.12,208.26,80.67,333.9,78.68
			c125.64-1.98,274.63-68.78,404.63-67.17c130,1.6,186.31,143.01,287.27,147.37c100.96,4.36,231.2-157.29,352.2-157.14
			c121,0.15,355.79,168.61,355.79,168.61"/>
		<path class="st2" d="M0.88,238.98c0,0,89.12-93.31,186.12-93.18c97,0.12,209.04,80.83,333.9,78.82
			c124.86-2.01,274.54-68.5,404.54-66.9c130,1.6,186.83,142.03,287.36,146.55c100.53,4.52,231.2-156.88,352.2-156.73
			c121,0.15,355.79,168.61,355.79,168.61"/>
		<path class="st2" d="M0.87,251c0,0,89.12-93.31,186.12-93.18c97,0.12,209.82,80.99,333.9,78.95s274.45-68.23,404.44-66.63
			c130,1.6,187.35,141.06,287.46,145.74c100.11,4.68,231.2-156.47,352.2-156.32c121,0.15,355.79,168.61,355.79,168.61"/>
		<path class="st2" d="M0.85,263.03c0,0,89.12-93.31,186.12-93.18c97,0.12,210.61,81.16,333.9,79.09s274.35-67.96,404.35-66.36
			c130,1.6,187.87,140.08,287.55,144.93s231.2-156.07,352.2-155.91c121,0.15,355.79,168.61,355.79,168.61"/>
		<path class="st2" d="M0.84,275.06c0,0,89.12-93.31,186.12-93.18c97,0.12,211.39,81.32,333.9,79.23s274.26-67.69,404.25-66.09
			c130,1.6,188.39,139.11,287.65,144.11c99.26,5.01,231.2-155.66,352.2-155.51s355.79,168.61,355.79,168.61"/>
		<path class="st2" d="M0.82,287.08c0,0,89.12-93.31,186.12-93.18s212.17,81.49,333.9,79.36S795,205.84,925,207.44
			c130,1.6,188.91,138.13,287.74,143.3c98.83,5.17,231.2-155.25,352.2-155.1c121,0.15,355.79,168.61,355.79,168.61"/>
		<path class="st2" d="M0.81,299.11c0,0,89.12-93.31,186.12-93.18s212.95,81.65,333.9,79.5s274.07-67.15,404.06-65.55
			c130,1.6,189.43,137.16,287.84,142.49c98.41,5.33,231.2-154.85,352.2-154.69c121,0.15,355.79,168.61,355.79,168.61"/>
		<path class="st2" d="M0.79,311.14c0,0,89.12-93.31,186.12-93.18s213.74,81.81,333.9,79.63c120.16-2.18,273.97-66.88,403.97-65.28
			c130,1.6,189.95,136.18,287.93,141.67c97.98,5.49,231.2-154.44,352.2-154.29c121,0.15,355.79,168.61,355.79,168.61"/>
		<path class="st2" d="M0.78,323.16c0,0,89.12-93.31,186.12-93.18s214.52,81.98,333.9,79.77s273.88-66.61,403.87-65.01
			c130,1.6,190.47,135.2,288.03,140.86c97.56,5.66,231.19-154.03,352.19-153.88c121,0.15,355.79,168.61,355.79,168.61"/>
		<path class="st2" d="M0.76,335.19c0,0,89.12-93.31,186.12-93.18s215.3,82.14,333.9,79.9s273.78-66.34,403.78-64.73
			c130,1.6,190.99,134.23,288.13,140.05c97.13,5.82,231.19-153.63,352.19-153.47c121,0.15,355.79,168.61,355.79,168.61"/>
		<path class="st2" d="M0.75,347.22c0,0,89.12-93.31,186.12-93.18s216.08,82.3,333.9,80.04s273.69-66.06,403.69-64.46
			s191.51,133.25,288.22,139.23c96.71,5.98,231.19-153.22,352.19-153.07c121,0.15,355.79,168.61,355.79,168.61"/>
		<path class="st2" d="M0.73,359.24c0,0,89.12-93.31,186.12-93.18s216.87,82.47,333.9,80.17s273.59-65.79,403.59-64.19
			c130,1.6,192.03,132.28,288.32,138.42s231.19-152.81,352.19-152.66c121,0.15,355.79,168.61,355.79,168.61"/>
		<path class="st2" d="M0.72,371.27c0,0,89.12-93.31,186.12-93.18s217.65,82.63,333.9,80.31s273.5-65.52,403.5-63.92
			s192.55,131.3,288.41,137.61c95.86,6.3,231.19-152.41,352.19-152.25c121,0.15,355.79,168.61,355.79,168.61"/>
		<path class="st2" d="M0.7,383.3c0,0,89.12-93.31,186.12-93.18s218.43,82.79,333.9,80.45s273.4-65.25,403.4-63.65
			c130,1.6,193.07,130.33,288.51,136.79s231.19-152,352.19-151.85c121,0.15,355.79,168.61,355.79,168.61"/>
		<path class="st2" d="M0.69,395.32c0,0,89.12-93.31,186.12-93.18s219.22,82.96,333.9,80.58s273.31-64.98,403.31-63.38
			s193.59,129.35,288.6,135.98s231.19-151.59,352.19-151.44c121,0.15,355.79,168.61,355.79,168.61"/>
		<path class="st2" d="M0.67,407.35c0,0,89.12-93.31,186.12-93.18s220,83.12,333.9,80.72s273.21-64.71,403.21-63.11
			c130,1.6,194.11,128.38,288.7,135.17s231.19-151.19,352.19-151.03c121,0.15,355.79,168.61,355.79,168.61"/>
		<path class="st2" d="M0.66,419.38c0,0,89.12-93.31,186.12-93.18s220.78,83.29,333.9,80.85s273.12-64.44,403.12-62.84
			s194.63,127.4,288.79,134.35c94.16,6.95,231.19-150.78,352.19-150.63c121,0.15,355.79,168.61,355.79,168.61"/>
		<path class="st2" d="M0.64,431.4c0,0,89.12-93.31,186.12-93.18s221.56,83.45,333.9,80.99s273.02-64.17,403.02-62.57
			c130,1.6,195.15,126.42,288.89,133.54s231.19-150.37,352.19-150.22c121,0.15,355.79,168.61,355.79,168.61"/>
		<path class="st2" d="M0.63,443.43c0,0,89.12-93.31,186.12-93.18s222.35,83.61,333.9,81.12c111.55-2.49,272.93-63.9,402.93-62.29
			s195.67,125.45,288.98,132.73s231.19-149.97,352.19-149.81c121,0.15,355.79,168.61,355.79,168.61"/>
		<path class="st2" d="M0.61,455.46c0,0,89.12-93.31,186.12-93.18c97,0.12,223.13,83.78,333.9,81.26s272.84-63.63,402.83-62.02
			s196.19,124.47,289.08,131.91c92.89,7.44,231.19-149.56,352.19-149.41c121,0.15,355.79,168.61,355.79,168.61"/>
		<path class="st2" d="M0.6,467.48c0,0,89.12-93.31,186.12-93.18s223.91,83.94,333.9,81.4c109.98-2.55,272.74-63.35,402.74-61.75
			c130,1.6,196.71,123.5,289.17,131.1c92.46,7.6,231.19-149.15,352.19-149c121,0.15,355.79,168.61,355.79,168.61"/>
		<path class="st2" d="M0.58,479.51c0,0,89.12-93.31,186.12-93.18c97,0.12,224.7,84.1,333.9,81.53s272.65-63.08,402.64-61.48
			s197.23,122.52,289.27,130.29c92.04,7.76,231.19-148.75,352.19-148.59c121,0.15,355.79,168.61,355.79,168.61"/>
		<path class="st2" d="M0.56,491.54c0,0,89.12-93.31,186.12-93.18s225.48,84.27,333.9,81.67c108.42-2.6,272.55-62.81,402.55-61.21
			c130,1.6,197.75,121.55,289.36,129.47c91.61,7.93,231.19-148.34,352.19-148.19s355.79,168.61,355.79,168.61"/>
		<path class="st2" d="M0.55,503.56c0,0,89.12-93.31,186.12-93.18c97,0.12,226.26,84.43,333.9,81.8s272.46-62.54,402.45-60.94
			s198.27,120.57,289.46,128.66s231.19-147.93,352.19-147.78c121,0.15,355.79,168.61,355.79,168.61"/>
		<path class="st2" d="M0.53,515.59c0,0,89.12-93.31,186.12-93.18s227.04,84.6,333.9,81.94c106.85-2.66,272.36-62.27,402.36-60.67
			c130,1.6,198.79,119.6,289.56,127.85c90.76,8.25,231.19-147.53,352.19-147.37c121,0.15,355.79,168.61,355.79,168.61"/>
		<path class="st2" d="M0.52,527.62c0,0,89.12-93.31,186.12-93.18c97,0.12,227.83,84.76,333.9,82.07s272.27-62,402.27-60.4
			s199.31,118.62,289.65,127.03s231.19-147.12,352.19-146.97c121,0.15,355.79,168.61,355.79,168.61"/>
		<path class="st2" d="M0.5,539.64c0,0,89.12-93.31,186.12-93.18s228.61,84.92,333.9,82.21s272.17-61.73,402.17-60.13
			c130,1.6,199.83,117.64,289.75,126.22c89.91,8.57,231.19-146.71,352.19-146.56c121,0.15,355.79,168.61,355.79,168.61"/>
		<path class="st2" d="M0.49,551.67c0,0,89.12-93.31,186.12-93.18S416,543.57,520.5,540.83c104.5-2.74,272.08-61.46,402.08-59.86
			c130,1.6,200.35,116.67,289.84,125.41s231.19-146.31,352.18-146.15c121,0.15,355.79,168.61,355.79,168.61"/>
		<path class="st2" d="M0.47,563.7c0,0,89.12-93.31,186.12-93.18s230.18,85.25,333.9,82.48s271.98-61.19,401.98-59.58
			S1123.34,609.1,1212.41,618c89.06,8.9,231.18-145.9,352.18-145.75c121,0.15,355.79,168.61,355.79,168.61"/>
		<path class="st2" d="M0.46,575.72c0,0,89.12-93.31,186.12-93.18s230.96,85.41,333.9,82.62s271.89-60.91,401.89-59.31
			c130,1.6,201.39,114.72,290.03,123.78s231.18-145.49,352.18-145.34c121,0.15,355.79,168.61,355.79,168.61"/>
		<path class="st2" d="M0.44,587.75c0,0,89.12-93.31,186.12-93.18s231.74,85.58,333.9,82.75c102.15-2.83,271.79-60.64,401.79-59.04
			s201.91,113.74,290.13,122.97c88.21,9.22,231.18-145.09,352.18-144.93c121,0.15,355.79,168.61,355.79,168.61"/>
		<path class="st2" d="M0.43,599.78c0,0,89.12-93.31,186.12-93.18s232.52,85.74,333.9,82.89c101.37-2.85,271.7-60.37,401.7-58.77
			s202.43,112.77,290.22,122.15c87.79,9.39,231.18-144.68,352.18-144.53c121,0.15,355.79,168.61,355.79,168.61"/>
		<path class="st2" d="M0.41,611.8c0,0,89.12-93.31,186.12-93.18s233.31,85.91,333.9,83.02s271.6-60.1,401.6-58.5
			c130,1.6,202.95,111.79,290.32,121.34s231.18-144.27,352.18-144.12s355.79,168.61,355.79,168.61"/>
		<path class="st2" d="M0.4,623.83c0,0,89.12-93.31,186.12-93.18s234.09,86.07,333.9,83.16s271.51-59.83,401.51-58.23
			s203.47,110.82,290.41,120.53c86.94,9.71,231.18-143.86,352.18-143.71s355.79,168.61,355.79,168.61"/>
		<path class="st2" d="M0.38,635.86c0,0,89.12-93.31,186.12-93.18s234.87,86.23,333.9,83.29c99.02-2.94,271.42-59.56,401.41-57.96
			s203.99,109.84,290.51,119.71s231.18-143.46,352.18-143.31c121,0.15,355.79,168.61,355.79,168.61"/>
		<path class="st2" d="M0.37,647.88c0,0,89.12-93.31,186.12-93.18c97,0.12,235.66,86.4,333.89,83.43
			c98.24-2.97,271.32-59.29,401.32-57.69c130,1.6,204.51,108.86,290.6,118.9c86.09,10.03,231.18-143.05,352.18-142.9
			c121,0.15,355.79,168.61,355.79,168.61"/>
		<path class="st2" d="M0.35,659.91c0,0,89.12-93.31,186.12-93.18s236.44,86.56,333.89,83.56s271.23-59.02,401.22-57.42
			s205.03,107.89,290.7,118.08c85.67,10.2,231.18-142.64,352.18-142.49c121,0.15,355.79,168.61,355.79,168.61"/>
		<path class="st2" d="M0.34,671.94c0,0,89.12-93.31,186.12-93.18s237.22,86.72,333.89,83.7s271.13-58.75,401.13-57.14
			s205.55,106.91,290.8,117.27s231.18-142.24,352.18-142.08s355.79,168.61,355.79,168.61"/>
		<path class="st2" d="M0.32,683.96c0,0,89.12-93.31,186.12-93.18s238,86.89,333.89,83.84c95.89-3.05,271.04-58.48,401.03-56.87
			s206.07,105.94,290.89,116.46c84.82,10.52,231.18-141.83,352.18-141.68c121,0.15,355.79,168.61,355.79,168.61"/>
		<path class="st2" d="M0.31,695.99c0,0,89.12-93.31,186.12-93.18c97,0.12,238.79,87.05,333.89,83.97s270.94-58.2,400.94-56.6
			c130,1.6,206.59,104.96,290.99,115.64s231.18-141.42,352.18-141.27c121,0.15,355.79,168.61,355.79,168.61"/>
		<path class="st2" d="M0.29,708.02c0,0,89.12-93.31,186.12-93.18s239.57,87.21,333.89,84.11S791.15,641,921.15,642.61
			s207.11,103.99,291.08,114.83c83.97,10.84,231.18-141.02,352.18-140.86c121,0.15,355.79,168.61,355.79,168.61"/>
		<path class="st2" d="M0.28,720.04c0,0,89.12-93.31,186.12-93.18s240.35,87.38,333.89,84.24s270.75-57.66,400.75-56.06
			s207.63,103.01,291.18,114.02c83.54,11.01,231.18-140.61,352.18-140.46s355.79,168.61,355.79,168.61"/>
		<path class="st2" d="M0.26,732.07c0,0,89.12-93.31,186.12-93.18s241.13,87.54,333.89,84.38c92.76-3.16,270.66-57.39,400.66-55.79
			s208.15,102.04,291.27,113.2c83.12,11.17,231.18-140.2,352.18-140.05c121,0.15,355.79,168.61,355.79,168.61"/>
		<path class="st2" d="M0.25,744.1c0,0,89.12-93.31,186.12-93.18s241.92,87.71,333.89,84.51s270.56-57.12,400.56-55.52
			s208.67,101.06,291.37,112.39c82.69,11.33,231.18-139.8,352.18-139.64s355.79,168.61,355.79,168.61"/>
		<path class="st2" d="M0.23,756.12c0,0,89.12-93.31,186.12-93.18s242.7,87.87,333.89,84.65s270.47-56.85,400.47-55.25
			s209.19,100.08,291.46,111.58c82.27,11.49,231.18-139.39,352.18-139.24s355.79,168.61,355.79,168.61"/>
		<path class="st2" d="M0.22,768.15c0,0,89.12-93.31,186.12-93.18S429.82,763,520.23,759.75s270.37-56.58,400.37-54.98
			s209.71,99.11,291.56,110.76c81.84,11.66,231.18-138.98,352.18-138.83c121,0.15,355.79,168.61,355.79,168.61"/>
		<path class="st2" d="M0.2,780.18c0,0,89.12-93.31,186.12-93.18s244.27,88.2,333.89,84.92c89.63-3.28,270.28-56.31,400.28-54.71
			c130,1.6,210.23,98.13,291.65,109.95c81.42,11.82,231.18-138.58,352.18-138.42c121,0.15,355.79,168.61,355.79,168.61"/>
		<path class="st2" d="M0.18,792.2c0,0,89.12-93.31,186.12-93.18s245.05,88.36,333.89,85.06s270.18-56.04,400.18-54.43
			s210.75,97.16,291.75,109.14c80.99,11.98,231.17-138.17,352.17-138.02c121,0.15,355.79,168.61,355.79,168.61"/>
		<path class="st2" d="M0.17,804.23c0,0,89.12-93.31,186.12-93.18s245.83,88.52,333.89,85.19c88.06-3.33,270.09-55.76,400.09-54.16
			s211.27,96.18,291.84,108.32c80.57,12.14,231.17-137.76,352.17-137.61s355.79,168.61,355.79,168.61"/>
		<path class="st2" d="M0.15,816.26c0,0,89.12-93.31,186.12-93.18s246.61,88.69,333.89,85.33s269.99-55.49,399.99-53.89
			s211.79,95.21,291.94,107.51c80.14,12.3,231.17-137.36,352.17-137.2c121,0.15,355.79,168.61,355.79,168.61"/>
		<path class="st2" d="M0.14,828.28c0,0,89.12-93.31,186.12-93.18c97,0.12,247.4,88.85,333.89,85.46
			c86.49-3.39,269.9-55.22,399.9-53.62c130,1.6,212.31,94.23,292.04,106.7c79.72,12.47,231.17-136.95,352.17-136.8
			c121,0.15,355.79,168.61,355.79,168.61"/>
		<path class="st2" d="M0.12,840.31c0,0,89.12-93.31,186.12-93.18s248.18,89.02,333.89,85.6s269.81-54.95,399.8-53.35
			s212.84,93.26,292.13,105.88c79.3,12.63,231.17-136.54,352.17-136.39c121,0.15,355.79,168.61,355.79,168.61"/>
		<path class="st2" d="M0.11,852.34c0,0,89.12-93.31,186.12-93.18s248.96,89.18,333.89,85.73c84.93-3.45,269.71-54.68,399.71-53.08
			s213.36,92.28,292.23,105.07c78.87,12.79,231.17-136.14,352.17-135.98s355.79,168.61,355.79,168.61"/>
		<path class="st2" d="M0.09,864.36c0,0,89.12-93.31,186.12-93.18s249.75,89.34,333.89,85.87s269.62-54.41,399.61-52.81
			c130,1.6,213.88,91.3,292.32,104.26s231.17-135.73,352.17-135.58c121,0.15,355.79,168.61,355.79,168.61"/>
		<path class="st2" d="M0.08,876.39c0,0,89.12-93.31,186.12-93.18s250.53,89.51,333.89,86.01c83.36-3.5,269.52-54.14,399.52-52.54
			S1134,907,1212.02,920.12c78.02,13.12,231.17-135.32,352.17-135.17c121,0.15,355.79,168.61,355.79,168.61"/>
		<path class="st2" d="M0.06,888.42c0,0,89.12-93.31,186.12-93.18s251.31,89.67,333.89,86.14S789.5,827.5,919.5,829.11
			s214.92,89.35,292.51,102.63c77.6,13.28,231.17-134.92,352.17-134.76s355.79,168.61,355.79,168.61"/>
		<path class="st2" d="M0.05,900.44c0,0,89.12-93.31,186.12-93.18s252.09,89.83,333.89,86.28c81.8-3.56,269.33-53.6,399.33-51.99
			s215.44,88.38,292.61,101.82c77.17,13.44,231.17-134.51,352.17-134.36c121,0.15,355.79,168.61,355.79,168.61"/>
		<path class="st2" d="M0.03,912.47c0,0,89.12-93.31,186.12-93.18s252.88,90,333.89,86.41c81.01-3.59,269.24-53.33,399.24-51.72
			c130,1.6,215.96,87.4,292.7,101c76.75,13.6,231.17-134.1,352.17-133.95c121,0.15,355.79,168.61,355.79,168.61"/>
		<path class="st2" d="M0.02,924.5c0,0,89.12-93.31,186.12-93.18s253.66,90.16,333.89,86.55c80.23-3.61,269.14-53.05,399.14-51.45
			s216.48,86.43,292.8,100.19c76.32,13.76,231.17-133.7,352.17-133.54c121,0.15,355.79,168.61,355.79,168.61"/>
		<path class="st2" d="M0,936.52c0,0,89.12-93.31,186.12-93.18s254.44,90.32,333.89,86.68s269.05-52.78,399.05-51.18
			s217,85.45,292.89,99.38s231.17-133.29,352.17-133.14s355.79,168.61,355.79,168.61"/>
		<path class="st2" d="M-0.01,948.55c0,0,89.12-93.31,186.12-93.18S441.33,945.85,520,942.18c78.67-3.67,268.95-52.51,398.95-50.91
			c130,1.6,217.52,84.48,292.99,98.56c75.47,14.09,231.17-132.88,352.17-132.73c121,0.15,355.79,168.61,355.79,168.61"/>
		<path class="st2" d="M-0.03,960.57c0,0,89.12-93.31,186.12-93.18c97,0.12,256.01,90.65,333.89,86.95
			c77.88-3.7,268.86-52.24,398.86-50.64s218.04,83.5,293.08,97.75s231.17-132.48,352.17-132.32
			c121,0.15,355.79,168.61,355.79,168.61"/>
		<path class="st2" d="M-0.04,972.6c0,0,89.12-93.31,186.12-93.18s256.79,90.82,333.89,87.09c77.1-3.73,268.76-51.97,398.76-50.37
			s218.56,82.52,293.18,96.94c74.62,14.41,231.17-132.07,352.17-131.92c121,0.15,355.79,168.61,355.79,168.61"/>
		<path class="st2" d="M-0.06,984.63c0,0,89.12-93.31,186.12-93.18s257.57,90.98,333.89,87.23s268.67-51.7,398.67-50.1
			s219.08,81.55,293.28,96.12c74.2,14.57,231.17-131.66,352.17-131.51s355.79,168.61,355.79,168.61"/>
		<path class="st2" d="M-0.07,996.65c0,0,89.12-93.31,186.12-93.18s258.36,91.14,333.89,87.36c75.53-3.78,268.57-51.43,398.57-49.83
			c130,1.6,219.6,80.57,293.37,95.31c73.77,14.74,231.17-131.26,352.17-131.1s355.79,168.61,355.79,168.61"/>
		<path class="st2" d="M-0.09,1008.68c0,0,89.12-93.31,186.12-93.18c97,0.12,259.14,91.31,333.89,87.5
			c74.75-3.81,268.48-51.16,398.48-49.56s220.12,79.6,293.47,94.5s231.17-130.85,352.17-130.7c121,0.15,355.79,168.61,355.79,168.61
			"/>
		<path class="st2" d="M-0.1,1020.71c0,0,89.12-93.31,186.12-93.18s259.92,91.47,333.89,87.63c73.97-3.84,268.39-50.89,398.38-49.28
			s220.64,78.62,293.56,93.68c72.92,15.06,231.17-130.44,352.16-130.29s355.79,168.61,355.79,168.61"/>
		<path class="st2" d="M-0.12,1032.73c0,0,89.12-93.31,186.12-93.18s260.71,91.63,333.89,87.77
			c73.18-3.87,268.29-50.61,398.29-49.01s221.16,77.65,293.66,92.87c72.5,15.22,231.16-130.03,352.16-129.88
			c121,0.15,355.79,168.61,355.79,168.61"/>
		<path class="st2" d="M-0.13,1044.76c0,0,89.12-93.31,186.12-93.18s261.49,91.8,333.89,87.9s268.2-50.34,398.19-48.74
			s221.68,76.67,293.75,92.06s231.16-129.63,352.16-129.48c121,0.15,355.79,168.61,355.79,168.61"/>
		<path class="st2" d="M-0.15,1056.79c0,0,89.12-93.31,186.12-93.18s262.27,91.96,333.89,88.04s268.1-50.07,398.1-48.47
			s222.2,75.69,293.85,91.24c71.65,15.55,231.16-129.22,352.16-129.07c121,0.15,355.79,168.61,355.79,168.61"/>
		<path class="st2" d="M-0.16,1068.81c0,0,89.12-93.31,186.12-93.18s263.05,92.13,333.89,88.17c70.84-3.95,268.01-49.8,398-48.2
			s222.72,74.72,293.94,90.43c71.23,15.71,231.16-128.81,352.16-128.66s355.79,168.61,355.79,168.61"/>
		<path class="st2" d="M-0.18,1080.84c0,0,89.12-93.31,186.12-93.18s263.84,92.29,333.89,88.31
			c70.05-3.98,267.91-49.53,397.91-47.93s223.24,73.74,294.04,89.62s231.16-128.41,352.16-128.25
			c121,0.15,355.79,168.61,355.79,168.61"/>
		<path class="st2" d="M-0.2,1092.87c0,0,89.12-93.31,186.12-93.18s264.62,92.45,333.89,88.45s267.82-49.26,397.82-47.66
			s223.76,72.77,294.13,88.8c70.38,16.03,231.16-128,352.16-127.85c121,0.15,355.79,168.61,355.79,168.61"/>
		<path class="st2" d="M-0.21,1104.89c0,0,89.12-93.31,186.12-93.18s265.4,92.62,333.89,88.58s267.72-48.99,397.72-47.39
			s224.28,71.79,294.23,87.99s231.16-127.59,352.16-127.44c121,0.15,355.79,168.61,355.79,168.61"/>
		<path class="st2" d="M-0.23,1116.92c0,0,89.12-93.31,186.12-93.18s266.18,92.78,333.89,88.72s267.63-48.72,397.63-47.12
			s224.8,70.82,294.32,87.18c69.53,16.36,231.16-127.19,352.16-127.03c121,0.15,355.79,168.61,355.79,168.61"/>
		<path class="st2" d="M-0.24,1128.95c0,0,89.12-93.31,186.12-93.18c97,0.12,266.97,92.94,333.89,88.85s267.53-48.45,397.53-46.84
			s225.32,69.84,294.42,86.36c69.1,16.52,231.16-126.78,352.16-126.63s355.79,168.61,355.79,168.61"/>
		<path class="st2" d="M-0.26,1140.97c0,0,89.12-93.31,186.12-93.18c97,0.12,267.75,93.11,333.89,88.99s267.44-48.18,397.44-46.57
			s225.84,68.87,294.51,85.55c68.68,16.68,231.16-126.37,352.16-126.22c121,0.15,355.79,168.61,355.79,168.61"/>
		<path class="st2" d="M-0.27,1153c0,0,89.12-93.31,186.12-93.18c97,0.12,268.53,93.27,333.89,89.12
			c65.35-4.15,267.34-47.9,397.34-46.3s226.36,67.89,294.61,84.74c68.25,16.84,231.16-125.97,352.16-125.81
			s355.79,168.61,355.79,168.61"/>
		<path class="st2" d="M-0.29,1165.03c0,0,89.12-93.31,186.12-93.18c97,0.12,269.32,93.44,333.89,89.26
			c64.57-4.18,267.25-47.63,397.25-46.03s226.88,66.91,294.71,83.92c67.83,17.01,231.16-125.56,352.16-125.41
			c121,0.15,355.79,168.61,355.79,168.61"/>
		<path class="st2" d="M-0.3,1177.05c0,0,89.12-93.31,186.12-93.18c97,0.12,270.1,93.6,333.89,89.39
			c63.79-4.2,267.15-47.36,397.15-45.76s227.4,65.94,294.8,83.11c67.4,17.17,231.16-125.15,352.16-125s355.79,168.61,355.79,168.61"
			/>
		<path class="st2" d="M-0.32,1189.08c0,0,89.12-93.31,186.12-93.18c97,0.12,270.88,93.76,333.89,89.53s267.06-47.09,397.06-45.49
			c130,1.6,227.92,64.96,294.9,82.29s231.16-124.75,352.16-124.59c121,0.15,355.79,168.61,355.79,168.61"/>
	</g>
</g>
</svg>
